<?xml version="1.0" encoding="utf-8" standalone="no"?>
<!DOCTYPE svg PUBLIC "-//W3C//DTD SVG 1.1//EN"
  "http://www.w3.org/Graphics/SVG/1.1/DTD/svg11.dtd">
<!-- Created with matplotlib (https://matplotlib.org/) -->
<svg height="382.305937pt" version="1.1" viewBox="0 0 394.408281 382.305937" width="394.408281pt" xmlns="http://www.w3.org/2000/svg" xmlns:xlink="http://www.w3.org/1999/xlink">
 <defs>
  <style type="text/css">
*{stroke-linecap:butt;stroke-linejoin:round;}
  </style>
 </defs>
 <g id="figure_1">
  <g id="patch_1">
   <path d="M 0 382.305937 
L 394.408281 382.305937 
L 394.408281 0 
L 0 0 
z
" style="fill:#ffffff;"/>
  </g>
  <g id="axes_1">
   <g id="patch_2">
    <path d="M 46.908281 108.535294 
L 381.708281 108.535294 
L 381.708281 10.7 
L 46.908281 10.7 
z
" style="fill:#ffffff;"/>
   </g>
   <g id="matplotlib.axis_1">
    <g id="xtick_1">
     <g id="line2d_1">
      <path clip-path="url(#p3c9207d3a5)" d="M 72.662127 108.535294 
L 72.662127 10.7 
" style="fill:none;stroke:#b0b0b0;stroke-linecap:square;stroke-width:0.8;"/>
     </g>
     <g id="line2d_2">
      <defs>
       <path d="M 0 0 
L 0 3.5 
" id="mdef85bedd1" style="stroke:#000000;stroke-width:0.8;"/>
      </defs>
      <g>
       <use style="stroke:#000000;stroke-width:0.8;" x="72.662127" xlink:href="#mdef85bedd1" y="108.535294"/>
      </g>
     </g>
    </g>
    <g id="xtick_2">
     <g id="line2d_3">
      <path clip-path="url(#p3c9207d3a5)" d="M 124.16982 108.535294 
L 124.16982 10.7 
" style="fill:none;stroke:#b0b0b0;stroke-linecap:square;stroke-width:0.8;"/>
     </g>
     <g id="line2d_4">
      <g>
       <use style="stroke:#000000;stroke-width:0.8;" x="124.16982" xlink:href="#mdef85bedd1" y="108.535294"/>
      </g>
     </g>
    </g>
    <g id="xtick_3">
     <g id="line2d_5">
      <path clip-path="url(#p3c9207d3a5)" d="M 175.677512 108.535294 
L 175.677512 10.7 
" style="fill:none;stroke:#b0b0b0;stroke-linecap:square;stroke-width:0.8;"/>
     </g>
     <g id="line2d_6">
      <g>
       <use style="stroke:#000000;stroke-width:0.8;" x="175.677512" xlink:href="#mdef85bedd1" y="108.535294"/>
      </g>
     </g>
    </g>
    <g id="xtick_4">
     <g id="line2d_7">
      <path clip-path="url(#p3c9207d3a5)" d="M 227.185204 108.535294 
L 227.185204 10.7 
" style="fill:none;stroke:#b0b0b0;stroke-linecap:square;stroke-width:0.8;"/>
     </g>
     <g id="line2d_8">
      <g>
       <use style="stroke:#000000;stroke-width:0.8;" x="227.185204" xlink:href="#mdef85bedd1" y="108.535294"/>
      </g>
     </g>
    </g>
    <g id="xtick_5">
     <g id="line2d_9">
      <path clip-path="url(#p3c9207d3a5)" d="M 278.692897 108.535294 
L 278.692897 10.7 
" style="fill:none;stroke:#b0b0b0;stroke-linecap:square;stroke-width:0.8;"/>
     </g>
     <g id="line2d_10">
      <g>
       <use style="stroke:#000000;stroke-width:0.8;" x="278.692897" xlink:href="#mdef85bedd1" y="108.535294"/>
      </g>
     </g>
    </g>
    <g id="xtick_6">
     <g id="line2d_11">
      <path clip-path="url(#p3c9207d3a5)" d="M 330.200589 108.535294 
L 330.200589 10.7 
" style="fill:none;stroke:#b0b0b0;stroke-linecap:square;stroke-width:0.8;"/>
     </g>
     <g id="line2d_12">
      <g>
       <use style="stroke:#000000;stroke-width:0.8;" x="330.200589" xlink:href="#mdef85bedd1" y="108.535294"/>
      </g>
     </g>
    </g>
    <g id="xtick_7">
     <g id="line2d_13">
      <path clip-path="url(#p3c9207d3a5)" d="M 381.708281 108.535294 
L 381.708281 10.7 
" style="fill:none;stroke:#b0b0b0;stroke-linecap:square;stroke-width:0.8;"/>
     </g>
     <g id="line2d_14">
      <g>
       <use style="stroke:#000000;stroke-width:0.8;" x="381.708281" xlink:href="#mdef85bedd1" y="108.535294"/>
      </g>
     </g>
    </g>
   </g>
   <g id="matplotlib.axis_2">
    <g id="ytick_1">
     <g id="line2d_15">
      <path clip-path="url(#p3c9207d3a5)" d="M 46.908281 104.088235 
L 381.708281 104.088235 
" style="fill:none;stroke:#b0b0b0;stroke-linecap:square;stroke-width:0.8;"/>
     </g>
     <g id="line2d_16">
      <defs>
       <path d="M 0 0 
L -3.5 0 
" id="m727467fb55" style="stroke:#000000;stroke-width:0.8;"/>
      </defs>
      <g>
       <use style="stroke:#000000;stroke-width:0.8;" x="46.908281" xlink:href="#m727467fb55" y="104.088235"/>
      </g>
     </g>
     <g id="text_1">
      <!-- -1.0 -->
      <defs>
       <path d="M 1.125 18.5 
L 1.125 24.703125 
L 27.59375 24.703125 
L 27.59375 18.5 
z
" id="Cmr10-45"/>
       <path d="M 9.28125 0 
L 9.28125 3.515625 
Q 21.78125 3.515625 21.78125 6.6875 
L 21.78125 59.1875 
Q 16.609375 56.6875 8.6875 56.6875 
L 8.6875 60.203125 
Q 20.953125 60.203125 27.203125 66.609375 
L 28.609375 66.609375 
Q 28.953125 66.609375 29.265625 66.328125 
Q 29.59375 66.0625 29.59375 65.71875 
L 29.59375 6.6875 
Q 29.59375 3.515625 42.09375 3.515625 
L 42.09375 0 
z
" id="Cmr10-49"/>
       <path d="M 8.40625 5.515625 
Q 8.40625 7.765625 10.0625 9.375 
Q 11.71875 10.984375 13.921875 10.984375 
Q 15.28125 10.984375 16.59375 10.25 
Q 17.921875 9.515625 18.65625 8.203125 
Q 19.390625 6.890625 19.390625 5.515625 
Q 19.390625 3.328125 17.765625 1.65625 
Q 16.15625 0 13.921875 0 
Q 11.71875 0 10.0625 1.65625 
Q 8.40625 3.328125 8.40625 5.515625 
z
" id="Cmr10-46"/>
       <path d="M 25 -2.203125 
Q 12.75 -2.203125 8.328125 7.875 
Q 3.90625 17.96875 3.90625 31.890625 
Q 3.90625 40.578125 5.484375 48.234375 
Q 7.078125 55.90625 11.78125 61.25 
Q 16.5 66.609375 25 66.609375 
Q 31.59375 66.609375 35.78125 63.375 
Q 39.984375 60.15625 42.1875 55.046875 
Q 44.390625 49.953125 45.1875 44.109375 
Q 46 38.28125 46 31.890625 
Q 46 23.296875 44.40625 15.796875 
Q 42.828125 8.296875 38.1875 3.046875 
Q 33.546875 -2.203125 25 -2.203125 
z
M 25 0.390625 
Q 30.5625 0.390625 33.296875 6.09375 
Q 36.03125 11.8125 36.671875 18.75 
Q 37.3125 25.6875 37.3125 33.5 
Q 37.3125 41.015625 36.671875 47.359375 
Q 36.03125 53.71875 33.3125 58.859375 
Q 30.609375 64.015625 25 64.015625 
Q 19.34375 64.015625 16.609375 58.828125 
Q 13.875 53.65625 13.234375 47.328125 
Q 12.59375 41.015625 12.59375 33.5 
Q 12.59375 27.9375 12.859375 23 
Q 13.140625 18.0625 14.3125 12.8125 
Q 15.484375 7.5625 18.09375 3.96875 
Q 20.703125 0.390625 25 0.390625 
z
" id="Cmr10-48"/>
      </defs>
      <g transform="translate(22.2 107.90472)scale(0.11 -0.11)">
       <use xlink:href="#Cmr10-45"/>
       <use x="33.300781" xlink:href="#Cmr10-49"/>
       <use x="83.300781" xlink:href="#Cmr10-46"/>
       <use x="110.986328" xlink:href="#Cmr10-48"/>
      </g>
     </g>
    </g>
    <g id="ytick_2">
     <g id="line2d_17">
      <path clip-path="url(#p3c9207d3a5)" d="M 46.908281 59.617647 
L 381.708281 59.617647 
" style="fill:none;stroke:#b0b0b0;stroke-linecap:square;stroke-width:0.8;"/>
     </g>
     <g id="line2d_18">
      <g>
       <use style="stroke:#000000;stroke-width:0.8;" x="46.908281" xlink:href="#m727467fb55" y="59.617647"/>
      </g>
     </g>
     <g id="text_2">
      <!-- -0.5 -->
      <defs>
       <path d="M 8.6875 11.375 
Q 9.71875 8.453125 11.84375 6.046875 
Q 13.96875 3.65625 16.875 2.3125 
Q 19.78125 0.984375 22.90625 0.984375 
Q 30.125 0.984375 32.859375 6.59375 
Q 35.59375 12.203125 35.59375 20.21875 
Q 35.59375 23.6875 35.46875 26.046875 
Q 35.359375 28.421875 34.8125 30.609375 
Q 33.890625 34.125 31.5625 36.765625 
Q 29.25 39.40625 25.875 39.40625 
Q 22.515625 39.40625 20.09375 38.375 
Q 17.671875 37.359375 16.15625 35.984375 
Q 14.65625 34.625 13.484375 33.109375 
Q 12.3125 31.59375 12.015625 31.5 
L 10.890625 31.5 
Q 10.640625 31.5 10.265625 31.8125 
Q 9.90625 32.125 9.90625 32.421875 
L 9.90625 65.828125 
Q 9.90625 66.0625 10.21875 66.328125 
Q 10.546875 66.609375 10.890625 66.609375 
L 11.1875 66.609375 
Q 17.921875 63.375 25.484375 63.375 
Q 32.90625 63.375 39.796875 66.609375 
L 40.09375 66.609375 
Q 40.4375 66.609375 40.71875 66.359375 
Q 41.015625 66.109375 41.015625 65.828125 
L 41.015625 64.890625 
Q 41.015625 64.40625 40.828125 64.40625 
Q 37.40625 59.859375 32.25 57.3125 
Q 27.09375 54.78125 21.578125 54.78125 
Q 17.578125 54.78125 13.375 55.90625 
L 13.375 37.015625 
Q 16.703125 39.703125 19.3125 40.84375 
Q 21.921875 42 25.984375 42 
Q 31.5 42 35.859375 38.8125 
Q 40.234375 35.640625 42.578125 30.53125 
Q 44.921875 25.4375 44.921875 20.125 
Q 44.921875 14.109375 41.96875 8.984375 
Q 39.015625 3.859375 33.9375 0.828125 
Q 28.859375 -2.203125 22.90625 -2.203125 
Q 17.96875 -2.203125 13.84375 0.328125 
Q 9.71875 2.875 7.34375 7.171875 
Q 4.984375 11.46875 4.984375 16.3125 
Q 4.984375 18.5625 6.4375 19.96875 
Q 7.90625 21.390625 10.109375 21.390625 
Q 12.3125 21.390625 13.796875 19.9375 
Q 15.28125 18.5 15.28125 16.3125 
Q 15.28125 14.15625 13.796875 12.671875 
Q 12.3125 11.1875 10.109375 11.1875 
Q 9.765625 11.1875 9.328125 11.25 
Q 8.890625 11.328125 8.6875 11.375 
z
" id="Cmr10-53"/>
      </defs>
      <g transform="translate(22.2 63.434131)scale(0.11 -0.11)">
       <use xlink:href="#Cmr10-45"/>
       <use x="33.300781" xlink:href="#Cmr10-48"/>
       <use x="83.300781" xlink:href="#Cmr10-46"/>
       <use x="110.986328" xlink:href="#Cmr10-53"/>
      </g>
     </g>
    </g>
    <g id="ytick_3">
     <g id="line2d_19">
      <path clip-path="url(#p3c9207d3a5)" d="M 46.908281 15.147059 
L 381.708281 15.147059 
" style="fill:none;stroke:#b0b0b0;stroke-linecap:square;stroke-width:0.8;"/>
     </g>
     <g id="line2d_20">
      <g>
       <use style="stroke:#000000;stroke-width:0.8;" x="46.908281" xlink:href="#m727467fb55" y="15.147059"/>
      </g>
     </g>
     <g id="text_3">
      <!-- 0.0 -->
      <g transform="translate(25.862656 18.963543)scale(0.11 -0.11)">
       <use xlink:href="#Cmr10-48"/>
       <use x="50" xlink:href="#Cmr10-46"/>
       <use x="77.685547" xlink:href="#Cmr10-48"/>
      </g>
     </g>
    </g>
    <g id="text_4">
     <!-- RoCoF (Hz/s) -->
     <defs>
      <path d="M 3.328125 0 
L 3.328125 3.515625 
Q 13.625 3.515625 13.625 6.6875 
L 13.625 61.625 
Q 13.625 64.796875 3.328125 64.796875 
L 3.328125 68.3125 
L 34.71875 68.3125 
Q 40.328125 68.3125 46.5 66.28125 
Q 52.6875 64.265625 56.828125 60.109375 
Q 60.984375 55.953125 60.984375 50.203125 
Q 60.984375 46 58.46875 42.703125 
Q 55.953125 39.40625 52.015625 37.1875 
Q 48.09375 34.96875 44 33.984375 
Q 48.484375 32.421875 51.84375 29 
Q 55.21875 25.59375 55.90625 21.1875 
L 57.328125 12.3125 
Q 58.296875 6.296875 59.375 3.34375 
Q 60.453125 0.390625 64.109375 0.390625 
Q 67.234375 0.390625 68.765625 3.296875 
Q 70.3125 6.203125 70.3125 9.625 
Q 70.3125 9.96875 70.625 10.234375 
Q 70.953125 10.5 71.296875 10.5 
L 72.21875 10.5 
Q 73.1875 10.5 73.1875 9.1875 
Q 73.1875 6.453125 72.109375 3.828125 
Q 71.046875 1.21875 69.015625 -0.484375 
Q 67 -2.203125 64.203125 -2.203125 
Q 56.984375 -2.203125 51.78125 1.390625 
Q 46.578125 4.984375 46.578125 11.921875 
L 46.578125 20.796875 
Q 46.578125 25.78125 43.109375 29.34375 
Q 39.65625 32.90625 34.625 32.90625 
L 22.609375 32.90625 
L 22.609375 6.6875 
Q 22.609375 3.515625 32.90625 3.515625 
L 32.90625 0 
z
M 22.609375 35.5 
L 33.296875 35.5 
Q 41.609375 35.5 45.953125 38.84375 
Q 50.296875 42.1875 50.296875 50.203125 
Q 50.296875 58.15625 46 61.46875 
Q 41.703125 64.796875 33.296875 64.796875 
L 27.6875 64.796875 
Q 25.875 64.796875 24.875 64.640625 
Q 23.875 64.5 23.234375 63.796875 
Q 22.609375 63.09375 22.609375 61.625 
z
" id="Cmr10-82"/>
      <path d="M 25 -1.125 
Q 19 -1.125 13.859375 1.921875 
Q 8.734375 4.984375 5.75 10.109375 
Q 2.78125 15.234375 2.78125 21.296875 
Q 2.78125 25.875 4.421875 30.125 
Q 6.0625 34.375 9.109375 37.71875 
Q 12.15625 41.0625 16.203125 42.9375 
Q 20.265625 44.828125 25 44.828125 
Q 31.15625 44.828125 36.203125 41.578125 
Q 41.265625 38.328125 44.1875 32.875 
Q 47.125 27.4375 47.125 21.296875 
Q 47.125 15.28125 44.140625 10.125 
Q 41.15625 4.984375 36.046875 1.921875 
Q 30.953125 -1.125 25 -1.125 
z
M 25 1.8125 
Q 33.015625 1.8125 35.6875 7.609375 
Q 38.375 13.421875 38.375 22.40625 
Q 38.375 27.4375 37.84375 30.734375 
Q 37.3125 34.03125 35.5 36.71875 
Q 34.375 38.375 32.640625 39.625 
Q 30.90625 40.875 28.96875 41.53125 
Q 27.046875 42.1875 25 42.1875 
Q 21.875 42.1875 19.0625 40.765625 
Q 16.265625 39.359375 14.40625 36.71875 
Q 12.546875 33.890625 12.03125 30.484375 
Q 11.53125 27.09375 11.53125 22.40625 
Q 11.53125 16.796875 12.5 12.328125 
Q 13.484375 7.859375 16.4375 4.828125 
Q 19.390625 1.8125 25 1.8125 
z
" id="Cmr10-111"/>
      <path d="M 22.796875 10.6875 
Q 26.21875 6.34375 31.34375 3.828125 
Q 36.46875 1.3125 42 1.3125 
Q 46.625 1.3125 50.578125 3.140625 
Q 54.546875 4.984375 57.5 8.25 
Q 60.453125 11.53125 62.03125 15.671875 
Q 63.625 19.828125 63.625 24.421875 
Q 63.625 25.203125 64.5 25.203125 
L 65.71875 25.203125 
Q 66.5 25.203125 66.5 24.21875 
Q 66.5 19 64.5 14.140625 
Q 62.5 9.28125 58.828125 5.59375 
Q 55.171875 1.90625 50.40625 -0.140625 
Q 45.65625 -2.203125 40.484375 -2.203125 
Q 33.296875 -2.203125 26.875 0.703125 
Q 20.453125 3.609375 15.6875 8.65625 
Q 10.9375 13.71875 8.265625 20.359375 
Q 5.609375 27 5.609375 34.1875 
Q 5.609375 41.359375 8.265625 48 
Q 10.9375 54.640625 15.6875 59.71875 
Q 20.453125 64.796875 26.875 67.65625 
Q 33.296875 70.515625 40.484375 70.515625 
Q 45.609375 70.515625 50.296875 68.28125 
Q 54.984375 66.0625 58.5 62.015625 
L 64.3125 70.21875 
Q 64.890625 70.515625 64.984375 70.515625 
L 65.71875 70.515625 
Q 66.015625 70.515625 66.25 70.265625 
Q 66.5 70.015625 66.5 69.671875 
L 66.5 42.671875 
Q 66.5 41.796875 65.71875 41.796875 
L 63.921875 41.796875 
Q 62.984375 41.796875 62.984375 42.671875 
Q 62.984375 45.5625 61.828125 49.125 
Q 60.6875 52.6875 58.90625 55.875 
Q 57.125 59.078125 54.78125 61.53125 
Q 49.171875 67 41.890625 67 
Q 36.375 67 31.3125 64.5 
Q 26.265625 62.015625 22.796875 57.625 
Q 19.140625 52.9375 17.71875 46.953125 
Q 16.3125 40.96875 16.3125 34.1875 
Q 16.3125 27.390625 17.71875 21.375 
Q 19.140625 15.375 22.796875 10.6875 
z
" id="Cmr10-67"/>
      <path d="M 3.078125 0 
L 3.078125 3.515625 
Q 13.375 3.515625 13.375 6.6875 
L 13.375 61.625 
Q 13.375 64.796875 3.078125 64.796875 
L 3.078125 68.3125 
L 58.203125 68.3125 
L 60.984375 45.40625 
L 58.109375 45.40625 
Q 57.421875 51.703125 56.265625 55.34375 
Q 55.125 58.984375 52.921875 61.0625 
Q 50.734375 63.140625 47.046875 63.96875 
Q 43.359375 64.796875 36.921875 64.796875 
L 27.78125 64.796875 
Q 25.984375 64.796875 24.96875 64.640625 
Q 23.96875 64.5 23.328125 63.796875 
Q 22.703125 63.09375 22.703125 61.625 
L 22.703125 35.890625 
L 29.78125 35.890625 
Q 34.90625 35.890625 37.296875 36.796875 
Q 39.703125 37.703125 40.59375 40.09375 
Q 41.5 42.484375 41.5 47.609375 
L 44.390625 47.609375 
L 44.390625 20.703125 
L 41.5 20.703125 
Q 41.5 25.828125 40.59375 28.21875 
Q 39.703125 30.609375 37.296875 31.515625 
Q 34.90625 32.421875 29.78125 32.421875 
L 22.703125 32.421875 
L 22.703125 6.6875 
Q 22.703125 3.515625 35.5 3.515625 
L 35.5 0 
z
" id="Cmr10-70"/>
      <path id="Cmr10-32"/>
      <path d="M 31 -24.8125 
Q 25.4375 -20.40625 21.40625 -14.71875 
Q 17.390625 -9.03125 14.8125 -2.578125 
Q 12.25 3.859375 10.984375 10.890625 
Q 9.71875 17.921875 9.71875 25 
Q 9.71875 32.171875 10.984375 39.203125 
Q 12.25 46.234375 14.859375 52.734375 
Q 17.484375 59.234375 21.53125 64.890625 
Q 25.59375 70.5625 31 74.8125 
Q 31 75 31.5 75 
L 32.421875 75 
Q 32.71875 75 32.953125 74.734375 
Q 33.203125 74.46875 33.203125 74.125 
Q 33.203125 73.6875 33.015625 73.484375 
Q 28.125 68.703125 24.875 63.234375 
Q 21.625 57.765625 19.640625 51.578125 
Q 17.671875 45.40625 16.796875 38.78125 
Q 15.921875 32.171875 15.921875 25 
Q 15.921875 -6.78125 32.90625 -23.296875 
Q 33.203125 -23.578125 33.203125 -24.125 
Q 33.203125 -24.359375 32.9375 -24.671875 
Q 32.671875 -25 32.421875 -25 
L 31.5 -25 
Q 31 -25 31 -24.8125 
z
" id="Cmr10-40"/>
      <path d="M 3.078125 0 
L 3.078125 3.515625 
Q 13.375 3.515625 13.375 6.6875 
L 13.375 61.625 
Q 13.375 64.796875 3.078125 64.796875 
L 3.078125 68.3125 
L 33.015625 68.3125 
L 33.015625 64.796875 
Q 22.703125 64.796875 22.703125 61.625 
L 22.703125 37.3125 
L 52.203125 37.3125 
L 52.203125 61.625 
Q 52.203125 64.796875 41.890625 64.796875 
L 41.890625 68.3125 
L 71.78125 68.3125 
L 71.78125 64.796875 
Q 61.53125 64.796875 61.53125 61.625 
L 61.53125 6.6875 
Q 61.53125 3.515625 71.78125 3.515625 
L 71.78125 0 
L 41.890625 0 
L 41.890625 3.515625 
Q 52.203125 3.515625 52.203125 6.6875 
L 52.203125 33.796875 
L 22.703125 33.796875 
L 22.703125 6.6875 
Q 22.703125 3.515625 33.015625 3.515625 
L 33.015625 0 
z
" id="Cmr10-72"/>
      <path d="M 3.90625 0 
Q 2.78125 0 2.78125 1.125 
L 2.78125 1.90625 
Q 2.78125 2.296875 3.078125 2.59375 
L 31 40.484375 
L 22.015625 40.484375 
Q 17.78125 40.484375 15.015625 39.9375 
Q 12.25 39.40625 10.46875 37.90625 
Q 8.6875 36.421875 7.875 33.8125 
Q 7.078125 31.203125 7.078125 26.609375 
L 4.203125 26.609375 
L 5.328125 43.109375 
L 38.8125 43.109375 
Q 39.265625 43.109375 39.578125 42.796875 
Q 39.890625 42.484375 39.890625 42 
L 39.890625 41.40625 
Q 39.890625 41.109375 39.703125 40.71875 
L 11.71875 2.875 
L 21.296875 2.875 
Q 25.640625 2.875 28.546875 3.40625 
Q 31.453125 3.953125 33.5 6 
Q 35.40625 7.90625 36.109375 11.125 
Q 36.8125 14.359375 37.203125 19.09375 
L 40.09375 19.09375 
L 38.375 0 
z
" id="Cmr10-122"/>
      <path d="M 5.609375 -23 
Q 5.609375 -22.703125 5.71875 -22.609375 
L 40.484375 73.78125 
Q 40.671875 74.359375 41.15625 74.671875 
Q 41.65625 75 42.28125 75 
Q 43.171875 75 43.71875 74.453125 
Q 44.28125 73.921875 44.28125 73 
L 44.28125 72.609375 
L 9.515625 -23.78125 
Q 8.9375 -25 7.625 -25 
Q 6.78125 -25 6.1875 -24.40625 
Q 5.609375 -23.828125 5.609375 -23 
z
" id="Cmr10-47"/>
      <path d="M 3.328125 -0.296875 
L 3.328125 16.015625 
Q 3.328125 16.796875 4.203125 16.796875 
L 5.421875 16.796875 
Q 6 16.796875 6.203125 16.015625 
Q 8.984375 1.515625 19.671875 1.515625 
Q 24.421875 1.515625 27.609375 3.65625 
Q 30.8125 5.8125 30.8125 10.296875 
Q 30.8125 13.53125 28.3125 15.796875 
Q 25.828125 18.0625 22.40625 18.890625 
L 15.71875 20.21875 
Q 12.359375 20.953125 9.59375 22.453125 
Q 6.84375 23.96875 5.078125 26.484375 
Q 3.328125 29 3.328125 32.328125 
Q 3.328125 36.71875 5.640625 39.515625 
Q 7.953125 42.328125 11.65625 43.578125 
Q 15.375 44.828125 19.671875 44.828125 
Q 24.8125 44.828125 28.609375 42.09375 
L 31.5 44.578125 
Q 31.5 44.828125 31.984375 44.828125 
L 32.71875 44.828125 
Q 33.015625 44.828125 33.25 44.546875 
Q 33.5 44.28125 33.5 44 
L 33.5 30.90625 
Q 33.5 29.984375 32.71875 29.984375 
L 31.5 29.984375 
Q 30.609375 29.984375 30.609375 30.90625 
Q 30.609375 36.140625 27.703125 39.3125 
Q 24.8125 42.484375 19.578125 42.484375 
Q 15.09375 42.484375 11.796875 40.8125 
Q 8.5 39.15625 8.5 35.109375 
Q 8.5 32.328125 10.859375 30.546875 
Q 13.234375 28.765625 16.40625 27.984375 
L 23.1875 26.703125 
Q 26.609375 25.921875 29.5625 24.0625 
Q 32.515625 22.21875 34.25 19.375 
Q 35.984375 16.546875 35.984375 12.984375 
Q 35.984375 9.375 34.734375 6.703125 
Q 33.5 4.046875 31.265625 2.28125 
Q 29.046875 0.53125 26.015625 -0.296875 
Q 23 -1.125 19.671875 -1.125 
Q 13.421875 -1.125 8.984375 3.078125 
L 5.328125 -0.875 
Q 5.328125 -1.125 4.78125 -1.125 
L 4.203125 -1.125 
Q 3.328125 -1.125 3.328125 -0.296875 
z
" id="Cmr10-115"/>
      <path d="M 6.5 -25 
Q 5.609375 -25 5.609375 -24.125 
Q 5.609375 -23.6875 5.8125 -23.484375 
Q 22.90625 -6.78125 22.90625 25 
Q 22.90625 56.78125 6 73.296875 
Q 5.609375 73.53125 5.609375 74.125 
Q 5.609375 74.46875 5.875 74.734375 
Q 6.15625 75 6.5 75 
L 7.421875 75 
Q 7.71875 75 7.90625 74.8125 
Q 15.09375 69.140625 19.875 61.03125 
Q 24.65625 52.9375 26.875 43.75 
Q 29.109375 34.578125 29.109375 25 
Q 29.109375 17.921875 27.90625 11.0625 
Q 26.703125 4.203125 24.09375 -2.453125 
Q 21.484375 -9.125 17.484375 -14.765625 
Q 13.484375 -20.40625 7.90625 -24.8125 
Q 7.71875 -25 7.421875 -25 
z
" id="Cmr10-41"/>
     </defs>
     <g transform="translate(15.45 94.306319)rotate(-90)scale(0.11 -0.11)">
      <use xlink:href="#Cmr10-82"/>
      <use x="73.583984" xlink:href="#Cmr10-111"/>
      <use x="123.583984" xlink:href="#Cmr10-67"/>
      <use x="195.800781" xlink:href="#Cmr10-111"/>
      <use x="245.800781" xlink:href="#Cmr10-70"/>
      <use x="310.986328" xlink:href="#Cmr10-32"/>
      <use x="344.287109" xlink:href="#Cmr10-40"/>
      <use x="383.105469" xlink:href="#Cmr10-72"/>
      <use x="458.105469" xlink:href="#Cmr10-122"/>
      <use x="502.490234" xlink:href="#Cmr10-47"/>
      <use x="552.490234" xlink:href="#Cmr10-115"/>
      <use x="591.894531" xlink:href="#Cmr10-41"/>
     </g>
    </g>
   </g>
   <g id="line2d_21">
    <path clip-path="url(#p3c9207d3a5)" d="M 46.882527 15.147059 
L 72.662127 15.147059 
L 73.022681 104.088235 
L 201.431358 104.088235 
L 201.791912 15.147059 
L 381.734035 15.147059 
L 381.734035 15.147059 
" style="fill:none;stroke:#d9524f;stroke-linecap:square;stroke-width:1.5;"/>
   </g>
   <g id="patch_3">
    <path d="M 46.908281 108.535294 
L 46.908281 10.7 
" style="fill:none;stroke:#000000;stroke-linecap:square;stroke-linejoin:miter;stroke-width:0.8;"/>
   </g>
   <g id="patch_4">
    <path d="M 381.708281 108.535294 
L 381.708281 10.7 
" style="fill:none;stroke:#000000;stroke-linecap:square;stroke-linejoin:miter;stroke-width:0.8;"/>
   </g>
   <g id="patch_5">
    <path d="M 46.908281 108.535294 
L 381.708281 108.535294 
" style="fill:none;stroke:#000000;stroke-linecap:square;stroke-linejoin:miter;stroke-width:0.8;"/>
   </g>
   <g id="patch_6">
    <path d="M 46.908281 10.7 
L 381.708281 10.7 
" style="fill:none;stroke:#000000;stroke-linecap:square;stroke-linejoin:miter;stroke-width:0.8;"/>
   </g>
  </g>
  <g id="axes_2">
   <g id="patch_7">
    <path d="M 46.908281 225.937647 
L 381.708281 225.937647 
L 381.708281 128.102353 
L 46.908281 128.102353 
z
" style="fill:#ffffff;"/>
   </g>
   <g id="matplotlib.axis_3">
    <g id="xtick_8">
     <g id="line2d_22">
      <path clip-path="url(#p8c1cfa4a69)" d="M 72.662127 225.937647 
L 72.662127 128.102353 
" style="fill:none;stroke:#b0b0b0;stroke-linecap:square;stroke-width:0.8;"/>
     </g>
     <g id="line2d_23">
      <g>
       <use style="stroke:#000000;stroke-width:0.8;" x="72.662127" xlink:href="#mdef85bedd1" y="225.937647"/>
      </g>
     </g>
    </g>
    <g id="xtick_9">
     <g id="line2d_24">
      <path clip-path="url(#p8c1cfa4a69)" d="M 124.16982 225.937647 
L 124.16982 128.102353 
" style="fill:none;stroke:#b0b0b0;stroke-linecap:square;stroke-width:0.8;"/>
     </g>
     <g id="line2d_25">
      <g>
       <use style="stroke:#000000;stroke-width:0.8;" x="124.16982" xlink:href="#mdef85bedd1" y="225.937647"/>
      </g>
     </g>
    </g>
    <g id="xtick_10">
     <g id="line2d_26">
      <path clip-path="url(#p8c1cfa4a69)" d="M 175.677512 225.937647 
L 175.677512 128.102353 
" style="fill:none;stroke:#b0b0b0;stroke-linecap:square;stroke-width:0.8;"/>
     </g>
     <g id="line2d_27">
      <g>
       <use style="stroke:#000000;stroke-width:0.8;" x="175.677512" xlink:href="#mdef85bedd1" y="225.937647"/>
      </g>
     </g>
    </g>
    <g id="xtick_11">
     <g id="line2d_28">
      <path clip-path="url(#p8c1cfa4a69)" d="M 227.185204 225.937647 
L 227.185204 128.102353 
" style="fill:none;stroke:#b0b0b0;stroke-linecap:square;stroke-width:0.8;"/>
     </g>
     <g id="line2d_29">
      <g>
       <use style="stroke:#000000;stroke-width:0.8;" x="227.185204" xlink:href="#mdef85bedd1" y="225.937647"/>
      </g>
     </g>
    </g>
    <g id="xtick_12">
     <g id="line2d_30">
      <path clip-path="url(#p8c1cfa4a69)" d="M 278.692897 225.937647 
L 278.692897 128.102353 
" style="fill:none;stroke:#b0b0b0;stroke-linecap:square;stroke-width:0.8;"/>
     </g>
     <g id="line2d_31">
      <g>
       <use style="stroke:#000000;stroke-width:0.8;" x="278.692897" xlink:href="#mdef85bedd1" y="225.937647"/>
      </g>
     </g>
    </g>
    <g id="xtick_13">
     <g id="line2d_32">
      <path clip-path="url(#p8c1cfa4a69)" d="M 330.200589 225.937647 
L 330.200589 128.102353 
" style="fill:none;stroke:#b0b0b0;stroke-linecap:square;stroke-width:0.8;"/>
     </g>
     <g id="line2d_33">
      <g>
       <use style="stroke:#000000;stroke-width:0.8;" x="330.200589" xlink:href="#mdef85bedd1" y="225.937647"/>
      </g>
     </g>
    </g>
    <g id="xtick_14">
     <g id="line2d_34">
      <path clip-path="url(#p8c1cfa4a69)" d="M 381.708281 225.937647 
L 381.708281 128.102353 
" style="fill:none;stroke:#b0b0b0;stroke-linecap:square;stroke-width:0.8;"/>
     </g>
     <g id="line2d_35">
      <g>
       <use style="stroke:#000000;stroke-width:0.8;" x="381.708281" xlink:href="#mdef85bedd1" y="225.937647"/>
      </g>
     </g>
    </g>
   </g>
   <g id="matplotlib.axis_4">
    <g id="ytick_4">
     <g id="line2d_36">
      <path clip-path="url(#p8c1cfa4a69)" d="M 46.908281 203.695208 
L 381.708281 203.695208 
" style="fill:none;stroke:#b0b0b0;stroke-linecap:square;stroke-width:0.8;"/>
     </g>
     <g id="line2d_37">
      <g>
       <use style="stroke:#000000;stroke-width:0.8;" x="46.908281" xlink:href="#m727467fb55" y="203.695208"/>
      </g>
     </g>
     <g id="text_5">
      <!-- 46 -->
      <defs>
       <path d="M 2.78125 16.5 
L 2.78125 20.015625 
L 33.6875 66.109375 
Q 34.03125 66.609375 34.71875 66.609375 
L 36.1875 66.609375 
Q 37.3125 66.609375 37.3125 65.484375 
L 37.3125 20.015625 
L 47.125 20.015625 
L 47.125 16.5 
L 37.3125 16.5 
L 37.3125 6.6875 
Q 37.3125 4.640625 40.234375 4.078125 
Q 43.171875 3.515625 47.015625 3.515625 
L 47.015625 0 
L 19.484375 0 
L 19.484375 3.515625 
Q 23.34375 3.515625 26.265625 4.078125 
Q 29.203125 4.640625 29.203125 6.6875 
L 29.203125 16.5 
z
M 6.109375 20.015625 
L 29.78125 20.015625 
L 29.78125 55.421875 
z
" id="Cmr10-52"/>
       <path d="M 25 -2.203125 
Q 18.796875 -2.203125 14.640625 1.09375 
Q 10.5 4.390625 8.21875 9.640625 
Q 5.953125 14.890625 5.078125 20.65625 
Q 4.203125 26.421875 4.203125 32.328125 
Q 4.203125 40.234375 7.28125 48.1875 
Q 10.359375 56.15625 16.328125 61.375 
Q 22.3125 66.609375 30.515625 66.609375 
Q 33.9375 66.609375 36.890625 65.3125 
Q 39.84375 64.015625 41.53125 61.5 
Q 43.21875 58.984375 43.21875 55.421875 
Q 43.21875 53.375 41.828125 51.984375 
Q 40.4375 50.59375 38.375 50.59375 
Q 36.421875 50.59375 35 52 
Q 33.59375 53.421875 33.59375 55.421875 
Q 33.59375 57.375 35 58.78125 
Q 36.421875 60.203125 38.375 60.203125 
L 38.921875 60.203125 
Q 37.640625 62.015625 35.328125 62.859375 
Q 33.015625 63.71875 30.515625 63.71875 
Q 27.484375 63.71875 24.921875 62.390625 
Q 22.359375 61.078125 20.3125 58.828125 
Q 18.265625 56.59375 16.890625 53.875 
Q 15.53125 51.171875 14.765625 47.703125 
Q 14.015625 44.234375 13.8125 41.203125 
Q 13.625 38.1875 13.625 33.59375 
Q 15.375 37.703125 18.59375 40.3125 
Q 21.828125 42.921875 25.875 42.921875 
Q 30.328125 42.921875 33.984375 41.109375 
Q 37.640625 39.3125 40.28125 36.109375 
Q 42.921875 32.90625 44.3125 28.796875 
Q 45.703125 24.703125 45.703125 20.515625 
Q 45.703125 14.65625 43.09375 9.34375 
Q 40.484375 4.046875 35.734375 0.921875 
Q 31 -2.203125 25 -2.203125 
z
M 25 0.984375 
Q 28.859375 0.984375 31.203125 2.734375 
Q 33.546875 4.5 34.640625 7.390625 
Q 35.75 10.296875 36.015625 13.25 
Q 36.28125 16.21875 36.28125 20.515625 
Q 36.28125 26.171875 35.734375 30.171875 
Q 35.203125 34.1875 32.8125 37.234375 
Q 30.421875 40.28125 25.484375 40.28125 
Q 21.4375 40.28125 18.828125 37.546875 
Q 16.21875 34.8125 15.015625 30.640625 
Q 13.8125 26.46875 13.8125 22.609375 
Q 13.8125 21.296875 13.921875 20.609375 
Q 13.921875 20.453125 13.890625 20.359375 
Q 13.875 20.265625 13.8125 20.125 
Q 13.8125 15.828125 14.6875 11.421875 
Q 15.578125 7.03125 18.0625 4 
Q 20.5625 0.984375 25 0.984375 
z
" id="Cmr10-54"/>
      </defs>
      <g transform="translate(28.908281 207.511692)scale(0.11 -0.11)">
       <use xlink:href="#Cmr10-52"/>
       <use x="50" xlink:href="#Cmr10-54"/>
      </g>
     </g>
    </g>
    <g id="ytick_5">
     <g id="line2d_38">
      <path clip-path="url(#p8c1cfa4a69)" d="M 46.908281 168.12335 
L 381.708281 168.12335 
" style="fill:none;stroke:#b0b0b0;stroke-linecap:square;stroke-width:0.8;"/>
     </g>
     <g id="line2d_39">
      <g>
       <use style="stroke:#000000;stroke-width:0.8;" x="46.908281" xlink:href="#m727467fb55" y="168.12335"/>
      </g>
     </g>
     <g id="text_6">
      <!-- 48 -->
      <defs>
       <path d="M 4.203125 15.1875 
Q 4.203125 21.1875 8.15625 25.796875 
Q 12.109375 30.421875 18.3125 33.5 
L 14.59375 35.890625 
Q 11.1875 38.140625 9.03125 41.875 
Q 6.890625 45.609375 6.890625 49.703125 
Q 6.890625 54.5 9.40625 58.34375 
Q 11.921875 62.203125 16.09375 64.40625 
Q 20.265625 66.609375 25 66.609375 
Q 29.4375 66.609375 33.5625 64.796875 
Q 37.703125 62.984375 40.359375 59.609375 
Q 43.015625 56.25 43.015625 51.609375 
Q 43.015625 48.25 41.421875 45.359375 
Q 39.84375 42.484375 37.078125 40.1875 
Q 34.328125 37.890625 31.203125 36.28125 
L 36.921875 32.625 
Q 40.875 30.03125 43.28125 25.828125 
Q 45.703125 21.625 45.703125 17 
Q 45.703125 11.578125 42.796875 7.125 
Q 39.890625 2.6875 35.109375 0.234375 
Q 30.328125 -2.203125 25 -2.203125 
Q 19.828125 -2.203125 15.015625 -0.09375 
Q 10.203125 2 7.203125 5.984375 
Q 4.203125 9.96875 4.203125 15.1875 
z
M 9.625 15.1875 
Q 9.625 11.234375 11.796875 7.953125 
Q 13.96875 4.6875 17.53125 2.828125 
Q 21.09375 0.984375 25 0.984375 
Q 30.8125 0.984375 35.546875 4.375 
Q 40.28125 7.765625 40.28125 13.375 
Q 40.28125 15.28125 39.515625 17.15625 
Q 38.765625 19.046875 37.421875 20.578125 
Q 36.078125 22.125 34.421875 23.09375 
L 21 31.78125 
Q 17.875 30.125 15.25 27.578125 
Q 12.640625 25.046875 11.125 21.875 
Q 9.625 18.703125 9.625 15.1875 
z
M 16.5 45.703125 
L 28.609375 37.890625 
Q 32.8125 40.328125 35.5 43.796875 
Q 38.1875 47.265625 38.1875 51.609375 
Q 38.1875 54.984375 36.296875 57.78125 
Q 34.421875 60.59375 31.390625 62.15625 
Q 28.375 63.71875 24.90625 63.71875 
Q 21.875 63.71875 18.796875 62.546875 
Q 15.71875 61.375 13.71875 59.046875 
Q 11.71875 56.734375 11.71875 53.609375 
Q 11.71875 48.921875 16.5 45.703125 
z
" id="Cmr10-56"/>
      </defs>
      <g transform="translate(28.908281 171.939834)scale(0.11 -0.11)">
       <use xlink:href="#Cmr10-52"/>
       <use x="50" xlink:href="#Cmr10-56"/>
      </g>
     </g>
    </g>
    <g id="ytick_6">
     <g id="line2d_40">
      <path clip-path="url(#p8c1cfa4a69)" d="M 46.908281 132.551491 
L 381.708281 132.551491 
" style="fill:none;stroke:#b0b0b0;stroke-linecap:square;stroke-width:0.8;"/>
     </g>
     <g id="line2d_41">
      <g>
       <use style="stroke:#000000;stroke-width:0.8;" x="46.908281" xlink:href="#m727467fb55" y="132.551491"/>
      </g>
     </g>
     <g id="text_7">
      <!-- 50 -->
      <g transform="translate(28.908281 136.367976)scale(0.11 -0.11)">
       <use xlink:href="#Cmr10-53"/>
       <use x="50" xlink:href="#Cmr10-48"/>
      </g>
     </g>
    </g>
    <g id="text_8">
     <!-- Frequency (Hz) -->
     <defs>
      <path d="M 2.59375 0 
L 2.59375 3.515625 
Q 6 3.515625 8.203125 4.046875 
Q 10.40625 4.59375 10.40625 6.6875 
L 10.40625 33.984375 
Q 10.40625 36.671875 9.59375 37.859375 
Q 8.796875 39.0625 7.28125 39.328125 
Q 5.765625 39.59375 2.59375 39.59375 
L 2.59375 43.109375 
L 16.890625 44.1875 
L 16.890625 34.421875 
Q 18.5 38.765625 21.484375 41.46875 
Q 24.46875 44.1875 28.71875 44.1875 
Q 31.6875 44.1875 34.03125 42.421875 
Q 36.375 40.671875 36.375 37.796875 
Q 36.375 35.984375 35.078125 34.640625 
Q 33.796875 33.296875 31.890625 33.296875 
Q 30.03125 33.296875 28.703125 34.609375 
Q 27.390625 35.9375 27.390625 37.796875 
Q 27.390625 40.484375 29.296875 41.609375 
L 28.71875 41.609375 
Q 24.65625 41.609375 22.09375 38.671875 
Q 19.53125 35.75 18.453125 31.390625 
Q 17.390625 27.046875 17.390625 23.09375 
L 17.390625 6.6875 
Q 17.390625 3.515625 27.09375 3.515625 
L 27.09375 0 
z
" id="Cmr10-114"/>
      <path d="M 24.90625 -1.125 
Q 18.796875 -1.125 13.6875 2.078125 
Q 8.59375 5.28125 5.6875 10.625 
Q 2.78125 15.96875 2.78125 21.921875 
Q 2.78125 27.78125 5.4375 33.046875 
Q 8.109375 38.328125 12.859375 41.578125 
Q 17.625 44.828125 23.484375 44.828125 
Q 28.078125 44.828125 31.46875 43.28125 
Q 34.859375 41.75 37.0625 39.015625 
Q 39.265625 36.28125 40.375 32.5625 
Q 41.5 28.859375 41.5 24.421875 
Q 41.5 23.09375 40.484375 23.09375 
L 11.53125 23.09375 
L 11.53125 22.015625 
Q 11.53125 13.71875 14.875 7.765625 
Q 18.21875 1.8125 25.78125 1.8125 
Q 28.859375 1.8125 31.46875 3.171875 
Q 34.078125 4.546875 36 6.984375 
Q 37.9375 9.421875 38.625 12.203125 
Q 38.71875 12.546875 38.984375 12.8125 
Q 39.265625 13.09375 39.59375 13.09375 
L 40.484375 13.09375 
Q 41.5 13.09375 41.5 11.8125 
Q 40.09375 6.15625 35.40625 2.515625 
Q 30.71875 -1.125 24.90625 -1.125 
z
M 11.625 25.59375 
L 34.421875 25.59375 
Q 34.421875 29.34375 33.375 33.203125 
Q 32.328125 37.0625 29.875 39.625 
Q 27.4375 42.1875 23.484375 42.1875 
Q 17.828125 42.1875 14.71875 36.890625 
Q 11.625 31.59375 11.625 25.59375 
z
" id="Cmr10-101"/>
      <path d="M 29.984375 -19.390625 
L 29.984375 -15.921875 
Q 33.40625 -15.921875 35.59375 -15.328125 
Q 37.796875 -14.75 37.796875 -12.703125 
L 37.796875 5.8125 
Q 35.453125 2.6875 31.890625 0.78125 
Q 28.328125 -1.125 24.421875 -1.125 
Q 19.921875 -1.125 16.0625 0.734375 
Q 12.203125 2.59375 9.34375 5.765625 
Q 6.5 8.9375 4.90625 13.109375 
Q 3.328125 17.28125 3.328125 21.578125 
Q 3.328125 27.546875 6.25 32.78125 
Q 9.1875 38.03125 14.28125 41.109375 
Q 19.390625 44.1875 25.296875 44.1875 
Q 29.546875 44.1875 33.15625 41.796875 
Q 36.765625 39.40625 38.921875 35.40625 
L 42.484375 44.1875 
L 45.125 44.1875 
L 45.125 -12.703125 
Q 45.125 -14.75 47.3125 -15.328125 
Q 49.515625 -15.921875 52.875 -15.921875 
L 52.875 -19.390625 
z
M 25 1.515625 
Q 29.4375 1.515625 32.921875 4.46875 
Q 36.421875 7.421875 38.09375 11.921875 
L 38.09375 29.5 
Q 37.0625 34.28125 33.828125 37.796875 
Q 30.609375 41.3125 26.125 41.3125 
Q 22.703125 41.3125 20.015625 39.5 
Q 17.328125 37.703125 15.546875 34.671875 
Q 13.765625 31.640625 12.890625 28.125 
Q 12.015625 24.609375 12.015625 21.484375 
Q 12.015625 17.484375 13.421875 12.765625 
Q 14.84375 8.0625 17.765625 4.78125 
Q 20.703125 1.515625 25 1.515625 
z
" id="Cmr10-113"/>
      <path d="M 10.796875 11.921875 
L 10.796875 33.984375 
Q 10.796875 36.671875 9.984375 37.859375 
Q 9.1875 39.0625 7.671875 39.328125 
Q 6.15625 39.59375 2.984375 39.59375 
L 2.984375 43.109375 
L 18.109375 44.1875 
L 18.109375 11.921875 
Q 18.109375 8.015625 18.671875 5.828125 
Q 19.234375 3.65625 21.0625 2.578125 
Q 22.90625 1.515625 26.90625 1.515625 
Q 32.28125 1.515625 35.453125 6 
Q 38.625 10.5 38.625 16.21875 
L 38.625 33.984375 
Q 38.625 36.671875 37.796875 37.859375 
Q 36.96875 39.0625 35.46875 39.328125 
Q 33.984375 39.59375 30.8125 39.59375 
L 30.8125 43.109375 
L 45.90625 44.1875 
L 45.90625 9.078125 
Q 45.90625 6.453125 46.703125 5.25 
Q 47.515625 4.046875 49.015625 3.78125 
Q 50.53125 3.515625 53.71875 3.515625 
L 53.71875 0 
L 38.921875 -1.125 
L 38.921875 7.328125 
Q 37.0625 3.5625 33.734375 1.21875 
Q 30.421875 -1.125 26.421875 -1.125 
Q 19.234375 -1.125 15.015625 1.921875 
Q 10.796875 4.984375 10.796875 11.921875 
z
" id="Cmr10-117"/>
      <path d="M 2.984375 0 
L 2.984375 3.515625 
Q 6.390625 3.515625 8.59375 4.046875 
Q 10.796875 4.59375 10.796875 6.6875 
L 10.796875 33.984375 
Q 10.796875 36.671875 9.984375 37.859375 
Q 9.1875 39.0625 7.671875 39.328125 
Q 6.15625 39.59375 2.984375 39.59375 
L 2.984375 43.109375 
L 17.484375 44.1875 
L 17.484375 34.421875 
Q 19.484375 38.71875 23.40625 41.453125 
Q 27.34375 44.1875 31.984375 44.1875 
Q 38.921875 44.1875 42.40625 40.859375 
Q 45.90625 37.546875 45.90625 30.71875 
L 45.90625 6.6875 
Q 45.90625 4.59375 48.09375 4.046875 
Q 50.296875 3.515625 53.71875 3.515625 
L 53.71875 0 
L 30.8125 0 
L 30.8125 3.515625 
Q 34.234375 3.515625 36.421875 4.046875 
Q 38.625 4.59375 38.625 6.6875 
L 38.625 30.421875 
Q 38.625 35.296875 37.203125 38.453125 
Q 35.796875 41.609375 31.390625 41.609375 
Q 25.59375 41.609375 21.84375 36.96875 
Q 18.109375 32.328125 18.109375 26.421875 
L 18.109375 6.6875 
Q 18.109375 4.59375 20.3125 4.046875 
Q 22.515625 3.515625 25.875 3.515625 
L 25.875 0 
z
" id="Cmr10-110"/>
      <path d="M 24.90625 -1.125 
Q 18.84375 -1.125 13.90625 2.015625 
Q 8.984375 5.171875 6.15625 10.421875 
Q 3.328125 15.671875 3.328125 21.578125 
Q 3.328125 27.484375 6.125 32.90625 
Q 8.9375 38.328125 13.890625 41.578125 
Q 18.84375 44.828125 24.90625 44.828125 
Q 30.765625 44.828125 35.5625 42.53125 
Q 40.375 40.234375 40.375 35.015625 
Q 40.375 33.0625 38.984375 31.609375 
Q 37.59375 30.171875 35.59375 30.171875 
Q 33.59375 30.171875 32.203125 31.609375 
Q 30.8125 33.0625 30.8125 35.015625 
Q 30.8125 36.765625 31.9375 38.0625 
Q 33.0625 39.359375 34.71875 39.703125 
Q 31.25 41.890625 25 41.890625 
Q 20.21875 41.890625 17.28125 38.71875 
Q 14.359375 35.546875 13.1875 30.859375 
Q 12.015625 26.171875 12.015625 21.578125 
Q 12.015625 16.75 13.453125 12.234375 
Q 14.890625 7.71875 18.09375 4.765625 
Q 21.296875 1.8125 26.125 1.8125 
Q 30.859375 1.8125 34.171875 4.71875 
Q 37.5 7.625 38.71875 12.3125 
Q 38.71875 12.890625 39.5 12.890625 
L 40.71875 12.890625 
Q 41.015625 12.890625 41.25 12.625 
Q 41.5 12.359375 41.5 12.015625 
L 41.5 11.71875 
Q 39.984375 5.8125 35.484375 2.34375 
Q 31 -1.125 24.90625 -1.125 
z
" id="Cmr10-99"/>
      <path d="M 6.890625 -16.40625 
Q 8.796875 -17.921875 11.078125 -17.921875 
Q 17.390625 -17.921875 21.390625 -8.40625 
L 24.8125 0 
L 9.8125 36.71875 
Q 8.890625 38.578125 6.984375 39.078125 
Q 5.078125 39.59375 1.90625 39.59375 
L 1.90625 43.109375 
L 22.90625 43.109375 
L 22.90625 39.59375 
Q 17.390625 39.59375 17.390625 37.203125 
Q 17.390625 36.8125 17.484375 36.625 
L 28.609375 9.28125 
L 38.625 33.890625 
Q 38.921875 34.671875 38.921875 35.59375 
Q 38.921875 36.8125 38.25 37.71875 
Q 37.59375 38.625 36.546875 39.109375 
Q 35.5 39.59375 34.1875 39.59375 
L 34.1875 43.109375 
L 50.78125 43.109375 
L 50.78125 39.59375 
Q 47.703125 39.59375 45.375 38.171875 
Q 43.0625 36.765625 41.796875 33.984375 
L 24.515625 -8.40625 
Q 23.140625 -11.625 21.3125 -14.328125 
Q 19.484375 -17.046875 16.84375 -18.78125 
Q 14.203125 -20.515625 11.078125 -20.515625 
Q 7.421875 -20.515625 4.65625 -18.09375 
Q 1.90625 -15.671875 1.90625 -12.109375 
Q 1.90625 -10.25 3.171875 -8.984375 
Q 4.4375 -7.71875 6.296875 -7.71875 
Q 7.5625 -7.71875 8.5625 -8.28125 
Q 9.578125 -8.84375 10.125 -9.8125 
Q 10.6875 -10.796875 10.6875 -12.109375 
Q 10.6875 -13.71875 9.609375 -14.984375 
Q 8.546875 -16.265625 6.890625 -16.40625 
z
" id="Cmr10-121"/>
     </defs>
     <g transform="translate(22.158281 214.650312)rotate(-90)scale(0.11 -0.11)">
      <use xlink:href="#Cmr10-70"/>
      <use x="65.185547" xlink:href="#Cmr10-114"/>
      <use x="104.296875" xlink:href="#Cmr10-101"/>
      <use x="148.681641" xlink:href="#Cmr10-113"/>
      <use x="201.367188" xlink:href="#Cmr10-117"/>
      <use x="256.884766" xlink:href="#Cmr10-101"/>
      <use x="301.269531" xlink:href="#Cmr10-110"/>
      <use x="356.787109" xlink:href="#Cmr10-99"/>
      <use x="401.171875" xlink:href="#Cmr10-121"/>
      <use x="453.857422" xlink:href="#Cmr10-32"/>
      <use x="487.158203" xlink:href="#Cmr10-40"/>
      <use x="525.976562" xlink:href="#Cmr10-72"/>
      <use x="600.976562" xlink:href="#Cmr10-122"/>
      <use x="645.361328" xlink:href="#Cmr10-41"/>
     </g>
    </g>
   </g>
   <g id="line2d_42">
    <path clip-path="url(#p8c1cfa4a69)" d="M 46.882527 132.549412 
L 72.919666 132.634333 
L 73.305974 132.917405 
L 73.460497 133.002327 
L 73.846804 133.285399 
L 73.975574 133.37032 
L 74.336127 133.625085 
L 74.464897 133.710006 
L 74.82545 133.964771 
L 74.979974 134.049693 
L 75.392035 134.361072 
L 75.546558 134.445993 
L 75.932866 134.729065 
L 76.087389 134.813987 
L 76.49945 135.125366 
L 76.653974 135.210287 
L 77.040281 135.493359 
L 77.194804 135.578281 
L 77.606866 135.88966 
L 77.761389 135.974581 
L 78.147697 136.257653 
L 78.276466 136.342575 
L 78.63702 136.597339 
L 78.791543 136.682261 
L 79.17785 136.965333 
L 79.30662 137.050254 
L 79.667174 137.305019 
L 79.795943 137.38994 
L 80.156497 137.644705 
L 80.285266 137.729627 
L 80.64582 137.984391 
L 80.800343 138.069313 
L 81.212404 138.380692 
L 81.366927 138.465614 
L 81.753235 138.748685 
L 81.907758 138.833607 
L 82.31982 139.144986 
L 82.474343 139.229908 
L 82.86065 139.512979 
L 83.015174 139.597901 
L 83.427235 139.90928 
L 83.581758 139.994202 
L 83.968066 140.277273 
L 84.096835 140.362195 
L 84.457389 140.61696 
L 84.611912 140.701881 
L 84.99822 140.984953 
L 85.126989 141.069875 
L 85.487543 141.324639 
L 85.616312 141.409561 
L 85.976866 141.664325 
L 86.105635 141.749247 
L 86.466189 142.004012 
L 86.620712 142.088933 
L 87.032774 142.400312 
L 87.187297 142.485234 
L 87.573604 142.768306 
L 87.728127 142.853227 
L 88.140189 143.164606 
L 88.294712 143.249528 
L 88.68102 143.5326 
L 88.835543 143.617521 
L 89.247604 143.9289 
L 89.402127 144.013822 
L 89.788435 144.296894 
L 89.917204 144.381815 
L 90.277758 144.63658 
L 90.432281 144.721501 
L 90.818589 145.004573 
L 90.947358 145.089495 
L 91.307912 145.34426 
L 91.436681 145.429181 
L 91.797235 145.683946 
L 91.926004 145.768867 
L 92.286558 146.023632 
L 92.441081 146.108554 
L 92.853143 146.419933 
L 93.007666 146.504854 
L 93.393974 146.787926 
L 93.548497 146.872848 
L 93.960558 147.184227 
L 94.115081 147.269148 
L 94.501389 147.55222 
L 94.655912 147.637142 
L 95.067974 147.948521 
L 95.222497 148.033442 
L 95.608804 148.316514 
L 95.737574 148.401436 
L 96.098127 148.6562 
L 96.25265 148.741122 
L 96.638958 149.024194 
L 96.767727 149.109115 
L 97.128281 149.36388 
L 97.25705 149.448801 
L 97.617604 149.703566 
L 97.746374 149.788488 
L 98.106927 150.043252 
L 98.26145 150.128174 
L 98.673512 150.439553 
L 98.828035 150.524474 
L 99.214343 150.807546 
L 99.368866 150.892468 
L 99.780927 151.203847 
L 99.93545 151.288768 
L 100.321758 151.57184 
L 100.476281 151.656762 
L 100.888343 151.968141 
L 101.042866 152.053062 
L 101.429174 152.336134 
L 101.557943 152.421056 
L 101.918497 152.675821 
L 102.07302 152.760742 
L 102.459327 153.043814 
L 102.588097 153.128736 
L 102.94865 153.3835 
L 103.07742 153.468422 
L 103.437974 153.723186 
L 103.566743 153.808108 
L 103.927297 154.062873 
L 104.08182 154.147794 
L 104.493881 154.459173 
L 104.648404 154.544095 
L 105.034712 154.827167 
L 105.189235 154.912088 
L 105.601297 155.223467 
L 105.75582 155.308389 
L 106.142127 155.591461 
L 106.29665 155.676382 
L 106.708712 155.987761 
L 106.863235 156.072683 
L 107.249543 156.355755 
L 107.378312 156.440676 
L 107.738866 156.695441 
L 107.893389 156.780362 
L 108.279697 157.063434 
L 108.408466 157.148356 
L 108.76902 157.403121 
L 108.897789 157.488042 
L 109.258343 157.742807 
L 109.387112 157.827728 
L 109.747666 158.082493 
L 109.902189 158.167415 
L 110.31425 158.478794 
L 110.468774 158.563715 
L 110.855081 158.846787 
L 111.009604 158.931709 
L 111.421666 159.243088 
L 111.576189 159.328009 
L 111.962497 159.611081 
L 112.11702 159.696003 
L 112.529081 160.007382 
L 112.683604 160.092303 
L 113.069912 160.375375 
L 113.198681 160.460297 
L 113.559235 160.715061 
L 113.713758 160.799983 
L 114.100066 161.083055 
L 114.228835 161.167976 
L 114.589389 161.422741 
L 114.718158 161.507662 
L 115.078712 161.762427 
L 115.207481 161.847349 
L 115.568035 162.102113 
L 115.722558 162.187035 
L 116.13462 162.498414 
L 116.289143 162.583335 
L 116.67545 162.866407 
L 116.829974 162.951329 
L 117.242035 163.262708 
L 117.396558 163.347629 
L 117.782866 163.630701 
L 117.937389 163.715623 
L 118.34945 164.027002 
L 118.503974 164.111923 
L 118.890281 164.394995 
L 119.01905 164.479917 
L 119.379604 164.734682 
L 119.534127 164.819603 
L 119.920435 165.102675 
L 120.049204 165.187597 
L 120.409758 165.442361 
L 120.538527 165.527283 
L 120.899081 165.782047 
L 121.02785 165.866969 
L 121.388404 166.121734 
L 121.542927 166.206655 
L 121.954989 166.518034 
L 122.109512 166.602956 
L 122.49582 166.886028 
L 122.650343 166.970949 
L 123.062404 167.282328 
L 123.216927 167.36725 
L 123.603235 167.650322 
L 123.757758 167.735243 
L 124.16982 168.046622 
L 124.324343 168.131544 
L 124.71065 168.414616 
L 124.83942 168.499537 
L 125.199974 168.754302 
L 125.354497 168.839223 
L 125.740804 169.122295 
L 125.869574 169.207217 
L 126.230127 169.461982 
L 126.358897 169.546903 
L 126.71945 169.801668 
L 126.84822 169.886589 
L 127.208774 170.141354 
L 127.363297 170.226276 
L 127.775358 170.537655 
L 127.929881 170.622576 
L 128.316189 170.905648 
L 128.470712 170.99057 
L 128.882774 171.301949 
L 129.037297 171.38687 
L 129.423604 171.669942 
L 129.578127 171.754864 
L 129.990189 172.066243 
L 130.144712 172.151164 
L 130.53102 172.434236 
L 130.659789 172.519158 
L 131.020343 172.773922 
L 131.174866 172.858844 
L 131.561174 173.141916 
L 131.689943 173.226837 
L 132.050497 173.481602 
L 132.179266 173.566523 
L 132.53982 173.821288 
L 132.668589 173.90621 
L 133.029143 174.160974 
L 133.183666 174.245896 
L 133.595727 174.557275 
L 133.75025 174.642196 
L 134.136558 174.925268 
L 134.291081 175.01019 
L 134.703143 175.321569 
L 134.857666 175.40649 
L 135.243974 175.689562 
L 135.398497 175.774484 
L 135.810558 176.085863 
L 135.965081 176.170784 
L 136.351389 176.453856 
L 136.480158 176.538778 
L 136.840712 176.793543 
L 136.995235 176.878464 
L 137.381543 177.161536 
L 137.510312 177.246457 
L 137.870866 177.501222 
L 137.999635 177.586144 
L 138.360189 177.840908 
L 138.488958 177.92583 
L 138.849512 178.180595 
L 139.004035 178.265516 
L 139.416097 178.576895 
L 139.57062 178.661817 
L 139.956927 178.944889 
L 140.11145 179.02981 
L 140.523512 179.341189 
L 140.678035 179.426111 
L 141.064343 179.709183 
L 141.218866 179.794104 
L 141.630927 180.105483 
L 141.78545 180.190405 
L 142.171758 180.473477 
L 142.300527 180.558398 
L 142.661081 180.813163 
L 142.815604 180.898084 
L 143.201912 181.181156 
L 143.330681 181.266078 
L 143.691235 181.520842 
L 143.820004 181.605764 
L 144.180558 181.860529 
L 144.309327 181.94545 
L 144.669881 182.200215 
L 144.824404 182.285136 
L 145.236466 182.596516 
L 145.390989 182.681437 
L 145.777297 182.964509 
L 145.93182 183.04943 
L 146.343881 183.36081 
L 146.498404 183.445731 
L 146.884712 183.728803 
L 147.039235 183.813724 
L 147.451297 184.125104 
L 147.60582 184.210025 
L 147.992127 184.493097 
L 148.120897 184.578018 
L 148.48145 184.832783 
L 148.635974 184.917705 
L 149.022281 185.200777 
L 149.15105 185.285698 
L 149.511604 185.540463 
L 149.640374 185.625384 
L 150.000927 185.880149 
L 150.129697 185.965071 
L 150.49025 186.219835 
L 150.644774 186.304757 
L 151.056835 186.616136 
L 151.211358 186.701057 
L 151.597666 186.984129 
L 151.752189 187.069051 
L 152.16425 187.38043 
L 152.318774 187.465351 
L 152.705081 187.748423 
L 152.859604 187.833345 
L 153.271666 188.144724 
L 153.426189 188.229645 
L 153.812497 188.512717 
L 153.941266 188.597639 
L 154.30182 188.852403 
L 154.456343 188.937325 
L 154.84265 189.220397 
L 154.97142 189.305318 
L 155.331974 189.560083 
L 155.460743 189.645005 
L 155.821297 189.899769 
L 155.950066 189.984691 
L 156.31062 190.239456 
L 156.465143 190.324377 
L 156.877204 190.635756 
L 157.031727 190.720678 
L 157.418035 191.00375 
L 157.572558 191.088671 
L 157.98462 191.40005 
L 158.139143 191.484972 
L 158.52545 191.768044 
L 158.679974 191.852965 
L 159.092035 192.164344 
L 159.246558 192.249266 
L 159.632866 192.532338 
L 159.761635 192.617259 
L 160.122189 192.872024 
L 160.276712 192.956945 
L 160.66302 193.240017 
L 160.791789 193.324939 
L 161.152343 193.579703 
L 161.281112 193.664625 
L 161.641666 193.91939 
L 161.770435 194.004311 
L 162.130989 194.259076 
L 162.285512 194.343997 
L 162.697574 194.655376 
L 162.852097 194.740298 
L 163.238404 195.02337 
L 163.392927 195.108291 
L 163.804989 195.41967 
L 163.959512 195.504592 
L 164.34582 195.787664 
L 164.500343 195.872585 
L 164.912404 196.183965 
L 165.066927 196.268886 
L 165.453235 196.551958 
L 165.582004 196.636879 
L 165.942558 196.891644 
L 166.097081 196.976566 
L 166.483389 197.259638 
L 166.612158 197.344559 
L 166.972712 197.599324 
L 167.101481 197.684245 
L 167.462035 197.93901 
L 167.590804 198.023932 
L 167.951358 198.278696 
L 168.105881 198.363618 
L 168.517943 198.674997 
L 168.672466 198.759918 
L 169.058774 199.04299 
L 169.213297 199.127912 
L 169.625358 199.439291 
L 169.779881 199.524212 
L 170.166189 199.807284 
L 170.320712 199.892206 
L 170.732774 200.203585 
L 170.887297 200.288506 
L 171.273604 200.571578 
L 171.402374 200.6565 
L 171.762927 200.911264 
L 171.91745 200.996186 
L 172.303758 201.279258 
L 172.432527 201.364179 
L 172.793081 201.618944 
L 172.92185 201.703866 
L 173.282404 201.95863 
L 173.411174 202.043552 
L 173.771727 202.298317 
L 173.92625 202.383238 
L 174.338312 202.694617 
L 174.492835 202.779539 
L 174.879143 203.062611 
L 175.033666 203.147532 
L 175.445727 203.458911 
L 175.60025 203.543833 
L 175.986558 203.826905 
L 176.141081 203.911826 
L 176.553143 204.223205 
L 176.707666 204.308127 
L 177.093974 204.591199 
L 177.222743 204.67612 
L 177.583297 204.930885 
L 177.73782 205.015806 
L 178.124127 205.298878 
L 178.252897 205.3838 
L 178.61345 205.638564 
L 178.74222 205.723486 
L 179.102774 205.978251 
L 179.231543 206.063172 
L 179.592097 206.317937 
L 179.74662 206.402858 
L 180.158681 206.714237 
L 180.313204 206.799159 
L 180.699512 207.082231 
L 180.854035 207.167152 
L 181.266097 207.478531 
L 181.42062 207.563453 
L 181.806927 207.846525 
L 181.96145 207.931446 
L 182.373512 208.242825 
L 182.528035 208.327747 
L 182.914343 208.610819 
L 183.043112 208.69574 
L 183.403666 208.950505 
L 183.558189 209.035427 
L 183.944497 209.318499 
L 184.073266 209.40342 
L 184.43382 209.658185 
L 184.562589 209.743106 
L 184.923143 209.997871 
L 185.051912 210.082793 
L 185.412466 210.337557 
L 185.566989 210.422479 
L 185.97905 210.733858 
L 186.133574 210.818779 
L 186.519881 211.101851 
L 186.674404 211.186773 
L 187.086466 211.498152 
L 187.240989 211.583073 
L 187.627297 211.866145 
L 187.78182 211.951067 
L 188.193881 212.262446 
L 188.348404 212.347367 
L 188.734712 212.630439 
L 188.863481 212.715361 
L 189.224035 212.970125 
L 189.378558 213.055047 
L 189.764866 213.338119 
L 189.893635 213.42304 
L 190.254189 213.677805 
L 190.382958 213.762727 
L 190.743512 214.017491 
L 190.872281 214.102413 
L 191.232835 214.357178 
L 191.387358 214.442099 
L 191.79942 214.753478 
L 191.953943 214.8384 
L 192.34025 215.121472 
L 192.494774 215.206393 
L 192.906835 215.517772 
L 193.061358 215.602694 
L 193.447666 215.885766 
L 193.602189 215.970687 
L 194.01425 216.282066 
L 194.168774 216.366988 
L 194.555081 216.65006 
L 194.68385 216.734981 
L 195.044404 216.989746 
L 195.198927 217.074667 
L 195.585235 217.357739 
L 195.714004 217.442661 
L 196.074558 217.697425 
L 196.203327 217.782347 
L 196.563881 218.037112 
L 196.69265 218.122033 
L 197.053204 218.376798 
L 197.207727 218.461719 
L 197.619789 218.773098 
L 197.774312 218.85802 
L 198.16062 219.141092 
L 198.315143 219.226013 
L 198.727204 219.537392 
L 198.881727 219.622314 
L 199.268035 219.905386 
L 199.422558 219.990307 
L 199.83462 220.301686 
L 199.989143 220.386608 
L 200.37545 220.66968 
L 200.50422 220.754601 
L 200.864774 221.009366 
L 201.019297 221.094288 
L 201.405604 221.377359 
L 201.611635 221.462281 
L 201.766158 221.490588 
L 381.734035 221.490588 
L 381.734035 221.490588 
" style="fill:none;stroke:#d9524f;stroke-linecap:square;stroke-width:1.5;"/>
   </g>
   <g id="patch_8">
    <path d="M 46.908281 225.937647 
L 46.908281 128.102353 
" style="fill:none;stroke:#000000;stroke-linecap:square;stroke-linejoin:miter;stroke-width:0.8;"/>
   </g>
   <g id="patch_9">
    <path d="M 381.708281 225.937647 
L 381.708281 128.102353 
" style="fill:none;stroke:#000000;stroke-linecap:square;stroke-linejoin:miter;stroke-width:0.8;"/>
   </g>
   <g id="patch_10">
    <path d="M 46.908281 225.937647 
L 381.708281 225.937647 
" style="fill:none;stroke:#000000;stroke-linecap:square;stroke-linejoin:miter;stroke-width:0.8;"/>
   </g>
   <g id="patch_11">
    <path d="M 46.908281 128.102353 
L 381.708281 128.102353 
" style="fill:none;stroke:#000000;stroke-linecap:square;stroke-linejoin:miter;stroke-width:0.8;"/>
   </g>
  </g>
  <g id="axes_3">
   <g id="patch_12">
    <path d="M 46.908281 343.34 
L 381.708281 343.34 
L 381.708281 245.504706 
L 46.908281 245.504706 
z
" style="fill:#ffffff;"/>
   </g>
   <g id="matplotlib.axis_5">
    <g id="xtick_15">
     <g id="line2d_43">
      <g>
       <use style="stroke:#000000;stroke-width:0.8;" x="72.662127" xlink:href="#mdef85bedd1" y="343.34"/>
      </g>
     </g>
     <g id="text_9">
      <!-- 0 -->
      <g transform="translate(69.912127 357.972969)scale(0.11 -0.11)">
       <use xlink:href="#Cmr10-48"/>
      </g>
     </g>
    </g>
    <g id="xtick_16">
     <g id="line2d_44">
      <g>
       <use style="stroke:#000000;stroke-width:0.8;" x="124.16982" xlink:href="#mdef85bedd1" y="343.34"/>
      </g>
     </g>
     <g id="text_10">
      <!-- 2 -->
      <defs>
       <path d="M 4.984375 0 
L 4.984375 2.6875 
Q 4.984375 2.9375 5.171875 3.21875 
L 20.703125 20.40625 
Q 24.21875 24.21875 26.40625 26.796875 
Q 28.609375 29.390625 30.75 32.765625 
Q 32.90625 36.140625 34.15625 39.625 
Q 35.40625 43.109375 35.40625 47.015625 
Q 35.40625 51.125 33.890625 54.859375 
Q 32.375 58.59375 29.375 60.84375 
Q 26.375 63.09375 22.125 63.09375 
Q 17.78125 63.09375 14.3125 60.46875 
Q 10.84375 57.859375 9.421875 53.71875 
Q 9.8125 53.8125 10.5 53.8125 
Q 12.75 53.8125 14.328125 52.296875 
Q 15.921875 50.78125 15.921875 48.390625 
Q 15.921875 46.09375 14.328125 44.5 
Q 12.75 42.921875 10.5 42.921875 
Q 8.15625 42.921875 6.5625 44.546875 
Q 4.984375 46.1875 4.984375 48.390625 
Q 4.984375 52.15625 6.390625 55.4375 
Q 7.8125 58.734375 10.46875 61.296875 
Q 13.140625 63.875 16.484375 65.234375 
Q 19.828125 66.609375 23.578125 66.609375 
Q 29.296875 66.609375 34.21875 64.1875 
Q 39.15625 61.765625 42.03125 57.34375 
Q 44.921875 52.9375 44.921875 47.015625 
Q 44.921875 42.671875 43.015625 38.765625 
Q 41.109375 34.859375 38.125 31.65625 
Q 35.15625 28.46875 30.515625 24.40625 
Q 25.875 20.359375 24.421875 19 
L 13.09375 8.109375 
L 22.703125 8.109375 
Q 29.78125 8.109375 34.546875 8.21875 
Q 39.3125 8.34375 39.59375 8.59375 
Q 40.765625 9.859375 42 17.828125 
L 44.921875 17.828125 
L 42.09375 0 
z
" id="Cmr10-50"/>
      </defs>
      <g transform="translate(121.41982 357.972969)scale(0.11 -0.11)">
       <use xlink:href="#Cmr10-50"/>
      </g>
     </g>
    </g>
    <g id="xtick_17">
     <g id="line2d_45">
      <g>
       <use style="stroke:#000000;stroke-width:0.8;" x="175.677512" xlink:href="#mdef85bedd1" y="343.34"/>
      </g>
     </g>
     <g id="text_11">
      <!-- 4 -->
      <g transform="translate(172.927512 357.972969)scale(0.11 -0.11)">
       <use xlink:href="#Cmr10-52"/>
      </g>
     </g>
    </g>
    <g id="xtick_18">
     <g id="line2d_46">
      <g>
       <use style="stroke:#000000;stroke-width:0.8;" x="227.185204" xlink:href="#mdef85bedd1" y="343.34"/>
      </g>
     </g>
     <g id="text_12">
      <!-- 6 -->
      <g transform="translate(224.435204 357.972969)scale(0.11 -0.11)">
       <use xlink:href="#Cmr10-54"/>
      </g>
     </g>
    </g>
    <g id="xtick_19">
     <g id="line2d_47">
      <g>
       <use style="stroke:#000000;stroke-width:0.8;" x="278.692897" xlink:href="#mdef85bedd1" y="343.34"/>
      </g>
     </g>
     <g id="text_13">
      <!-- 8 -->
      <g transform="translate(275.942897 357.972969)scale(0.11 -0.11)">
       <use xlink:href="#Cmr10-56"/>
      </g>
     </g>
    </g>
    <g id="xtick_20">
     <g id="line2d_48">
      <g>
       <use style="stroke:#000000;stroke-width:0.8;" x="330.200589" xlink:href="#mdef85bedd1" y="343.34"/>
      </g>
     </g>
     <g id="text_14">
      <!-- 10 -->
      <g transform="translate(324.700589 357.972969)scale(0.11 -0.11)">
       <use xlink:href="#Cmr10-49"/>
       <use x="50" xlink:href="#Cmr10-48"/>
      </g>
     </g>
    </g>
    <g id="xtick_21">
     <g id="line2d_49">
      <g>
       <use style="stroke:#000000;stroke-width:0.8;" x="381.708281" xlink:href="#mdef85bedd1" y="343.34"/>
      </g>
     </g>
     <g id="text_15">
      <!-- 12 -->
      <g transform="translate(376.208281 357.972969)scale(0.11 -0.11)">
       <use xlink:href="#Cmr10-49"/>
       <use x="50" xlink:href="#Cmr10-50"/>
      </g>
     </g>
    </g>
    <g id="text_16">
     <!-- Time (s) -->
     <defs>
      <path d="M 16.890625 0 
L 16.890625 3.515625 
Q 21.921875 3.515625 26.65625 4.078125 
Q 31.390625 4.640625 31.390625 6.6875 
L 31.390625 61.625 
Q 31.390625 63.765625 30.1875 64.28125 
Q 29 64.796875 26.3125 64.796875 
L 22.125 64.796875 
Q 13.875 64.796875 10.40625 61.1875 
Q 8.59375 59.375 7.8125 55.390625 
Q 7.03125 51.421875 6.5 45.40625 
L 3.609375 45.40625 
L 5.515625 68.3125 
L 66.609375 68.3125 
L 68.5 45.40625 
L 65.578125 45.40625 
Q 64.984375 51.859375 64.28125 55.640625 
Q 63.578125 59.421875 61.71875 61.1875 
Q 58.203125 64.796875 50 64.796875 
L 45.796875 64.796875 
Q 44 64.796875 43 64.640625 
Q 42 64.5 41.359375 63.796875 
Q 40.71875 63.09375 40.71875 61.625 
L 40.71875 6.6875 
Q 40.71875 4.640625 45.453125 4.078125 
Q 50.203125 3.515625 55.171875 3.515625 
L 55.171875 0 
z
" id="Cmr10-84"/>
      <path d="M 3.078125 0 
L 3.078125 3.515625 
Q 6.5 3.515625 8.6875 4.046875 
Q 10.890625 4.59375 10.890625 6.6875 
L 10.890625 33.984375 
Q 10.890625 37.84375 9.390625 38.71875 
Q 7.90625 39.59375 3.515625 39.59375 
L 3.515625 43.109375 
L 17.921875 44.1875 
L 17.921875 6.6875 
Q 17.921875 4.59375 19.828125 4.046875 
Q 21.734375 3.515625 24.90625 3.515625 
L 24.90625 0 
z
M 7.328125 61.375 
Q 7.328125 63.578125 8.984375 65.234375 
Q 10.640625 66.890625 12.796875 66.890625 
Q 14.203125 66.890625 15.515625 66.15625 
Q 16.84375 65.4375 17.578125 64.109375 
Q 18.3125 62.796875 18.3125 61.375 
Q 18.3125 59.234375 16.640625 57.5625 
Q 14.984375 55.90625 12.796875 55.90625 
Q 10.640625 55.90625 8.984375 57.5625 
Q 7.328125 59.234375 7.328125 61.375 
z
" id="Cmr10-105"/>
      <path d="M 2.984375 0 
L 2.984375 3.515625 
Q 6.390625 3.515625 8.59375 4.046875 
Q 10.796875 4.59375 10.796875 6.6875 
L 10.796875 33.984375 
Q 10.796875 36.671875 9.984375 37.859375 
Q 9.1875 39.0625 7.671875 39.328125 
Q 6.15625 39.59375 2.984375 39.59375 
L 2.984375 43.109375 
L 17.484375 44.1875 
L 17.484375 34.421875 
Q 19.484375 38.71875 23.40625 41.453125 
Q 27.34375 44.1875 31.984375 44.1875 
Q 43.5 44.1875 45.515625 34.8125 
Q 47.515625 39.015625 51.359375 41.59375 
Q 55.21875 44.1875 59.8125 44.1875 
Q 64.359375 44.1875 67.453125 42.71875 
Q 70.5625 41.265625 72.125 38.25 
Q 73.6875 35.25 73.6875 30.71875 
L 73.6875 6.6875 
Q 73.6875 4.59375 75.90625 4.046875 
Q 78.125 3.515625 81.5 3.515625 
L 81.5 0 
L 58.59375 0 
L 58.59375 3.515625 
Q 62.015625 3.515625 64.203125 4.046875 
Q 66.40625 4.59375 66.40625 6.6875 
L 66.40625 30.421875 
Q 66.40625 35.453125 64.984375 38.53125 
Q 63.578125 41.609375 59.1875 41.609375 
Q 53.421875 41.609375 49.65625 36.96875 
Q 45.90625 32.328125 45.90625 26.421875 
L 45.90625 6.6875 
Q 45.90625 4.59375 48.09375 4.046875 
Q 50.296875 3.515625 53.71875 3.515625 
L 53.71875 0 
L 30.8125 0 
L 30.8125 3.515625 
Q 34.234375 3.515625 36.421875 4.046875 
Q 38.625 4.59375 38.625 6.6875 
L 38.625 30.421875 
Q 38.625 35.296875 37.203125 38.453125 
Q 35.796875 41.609375 31.390625 41.609375 
Q 25.59375 41.609375 21.84375 36.96875 
Q 18.109375 32.328125 18.109375 26.421875 
L 18.109375 6.6875 
Q 18.109375 4.59375 20.3125 4.046875 
Q 22.515625 3.515625 25.875 3.515625 
L 25.875 0 
z
" id="Cmr10-109"/>
     </defs>
     <g transform="translate(193.522578 372.355937)scale(0.11 -0.11)">
      <use xlink:href="#Cmr10-84"/>
      <use x="72.216797" xlink:href="#Cmr10-105"/>
      <use x="99.902344" xlink:href="#Cmr10-109"/>
      <use x="183.203125" xlink:href="#Cmr10-101"/>
      <use x="227.587891" xlink:href="#Cmr10-32"/>
      <use x="260.888672" xlink:href="#Cmr10-40"/>
      <use x="299.707031" xlink:href="#Cmr10-115"/>
      <use x="339.111328" xlink:href="#Cmr10-41"/>
     </g>
    </g>
   </g>
   <g id="matplotlib.axis_6">
    <g id="ytick_7">
     <g id="line2d_50">
      <g>
       <use style="stroke:#000000;stroke-width:0.8;" x="46.908281" xlink:href="#m727467fb55" y="313.1863"/>
      </g>
     </g>
     <g id="text_17">
      <!-- 0.0 -->
      <g transform="translate(25.862656 317.002784)scale(0.11 -0.11)">
       <use xlink:href="#Cmr10-48"/>
       <use x="50" xlink:href="#Cmr10-46"/>
       <use x="77.685547" xlink:href="#Cmr10-48"/>
      </g>
     </g>
    </g>
    <g id="ytick_8">
     <g id="line2d_51">
      <g>
       <use style="stroke:#000000;stroke-width:0.8;" x="46.908281" xlink:href="#m727467fb55" y="278.926766"/>
      </g>
     </g>
     <g id="text_18">
      <!-- 0.2 -->
      <g transform="translate(25.862656 282.74325)scale(0.11 -0.11)">
       <use xlink:href="#Cmr10-48"/>
       <use x="50" xlink:href="#Cmr10-46"/>
       <use x="77.685547" xlink:href="#Cmr10-50"/>
      </g>
     </g>
    </g>
    <g id="text_19">
     <!-- Power (p.u.) -->
     <defs>
      <path d="M 3.328125 0 
L 3.328125 3.515625 
Q 13.625 3.515625 13.625 6.6875 
L 13.625 61.625 
Q 13.625 64.796875 3.328125 64.796875 
L 3.328125 68.3125 
L 38.921875 68.3125 
Q 44.390625 68.3125 49.859375 66.0625 
Q 55.328125 63.8125 58.859375 59.515625 
Q 62.40625 55.21875 62.40625 49.515625 
Q 62.40625 43.953125 58.84375 39.75 
Q 55.28125 35.546875 49.859375 33.375 
Q 44.4375 31.203125 38.921875 31.203125 
L 22.90625 31.203125 
L 22.90625 6.6875 
Q 22.90625 3.515625 33.203125 3.515625 
L 33.203125 0 
z
M 22.609375 34.1875 
L 36.1875 34.1875 
Q 41.703125 34.1875 45.109375 35.765625 
Q 48.53125 37.359375 50.109375 40.703125 
Q 51.703125 44.046875 51.703125 49.515625 
Q 51.703125 57.671875 48.109375 61.234375 
Q 44.53125 64.796875 36.1875 64.796875 
L 27.6875 64.796875 
Q 25.875 64.796875 24.875 64.640625 
Q 23.875 64.5 23.234375 63.796875 
Q 22.609375 63.09375 22.609375 61.625 
z
" id="Cmr10-80"/>
      <path d="M 22.125 0 
L 9.1875 36.375 
Q 8.296875 38.578125 6.640625 39.078125 
Q 4.984375 39.59375 1.8125 39.59375 
L 1.8125 43.109375 
L 22.40625 43.109375 
L 22.40625 39.59375 
Q 16.5 39.59375 16.5 37.109375 
Q 16.546875 36.96875 16.578125 36.8125 
Q 16.609375 36.671875 16.609375 36.375 
L 26.21875 9.421875 
L 34.515625 32.90625 
L 33.203125 36.375 
Q 32.421875 38.578125 30.703125 39.078125 
Q 29 39.59375 25.875 39.59375 
L 25.875 43.109375 
L 45.609375 43.109375 
L 45.609375 39.59375 
Q 39.703125 39.59375 39.703125 37.109375 
Q 39.703125 36.71875 39.796875 36.375 
L 49.8125 8.203125 
L 58.890625 33.6875 
Q 59.078125 34.46875 59.078125 35.109375 
Q 59.078125 37.203125 57.296875 38.390625 
Q 55.515625 39.59375 53.328125 39.59375 
L 53.328125 43.109375 
L 70.3125 43.109375 
L 70.3125 39.59375 
Q 67.28125 39.59375 65.109375 38 
Q 62.9375 36.421875 61.921875 33.6875 
L 50 0 
Q 49.65625 -1.125 48.484375 -1.125 
L 47.703125 -1.125 
Q 46.53125 -1.125 46.1875 0 
L 36.078125 28.515625 
L 25.984375 0 
Q 25.484375 -1.125 24.421875 -1.125 
L 23.6875 -1.125 
Q 22.46875 -1.125 22.125 0 
z
" id="Cmr10-119"/>
      <path d="M 2.59375 -19.390625 
L 2.59375 -15.921875 
Q 6 -15.921875 8.203125 -15.328125 
Q 10.40625 -14.75 10.40625 -12.703125 
L 10.40625 35.5 
Q 10.40625 38.234375 8.453125 38.90625 
Q 6.5 39.59375 2.59375 39.59375 
L 2.59375 43.109375 
L 17.390625 44.1875 
L 17.390625 37.984375 
Q 20.125 41.015625 23.75 42.59375 
Q 27.390625 44.1875 31.5 44.1875 
Q 37.40625 44.1875 42.140625 40.984375 
Q 46.875 37.796875 49.53125 32.59375 
Q 52.203125 27.390625 52.203125 21.578125 
Q 52.203125 15.53125 49.25 10.296875 
Q 46.296875 5.078125 41.1875 1.96875 
Q 36.078125 -1.125 29.984375 -1.125 
Q 22.703125 -1.125 17.671875 4.78125 
L 17.671875 -12.703125 
Q 17.671875 -14.75 19.890625 -15.328125 
Q 22.125 -15.921875 25.484375 -15.921875 
L 25.484375 -19.390625 
z
M 17.671875 9.71875 
Q 19.4375 6.15625 22.5625 3.828125 
Q 25.6875 1.515625 29.390625 1.515625 
Q 32.859375 1.515625 35.515625 3.359375 
Q 38.1875 5.21875 39.984375 8.34375 
Q 41.796875 11.46875 42.640625 14.90625 
Q 43.5 18.359375 43.5 21.578125 
Q 43.5 25.59375 42.0625 30.25 
Q 40.625 34.90625 37.671875 38.109375 
Q 34.71875 41.3125 30.515625 41.3125 
Q 26.46875 41.3125 23.0625 39.234375 
Q 19.671875 37.15625 17.671875 33.59375 
z
" id="Cmr10-112"/>
     </defs>
     <g transform="translate(19.112656 324.73079)rotate(-90)scale(0.11 -0.11)">
      <use xlink:href="#Cmr10-80"/>
      <use x="68.017578" xlink:href="#Cmr10-111"/>
      <use x="118.017578" xlink:href="#Cmr10-119"/>
      <use x="190.234375" xlink:href="#Cmr10-101"/>
      <use x="234.619141" xlink:href="#Cmr10-114"/>
      <use x="273.730469" xlink:href="#Cmr10-32"/>
      <use x="307.03125" xlink:href="#Cmr10-40"/>
      <use x="345.849609" xlink:href="#Cmr10-112"/>
      <use x="401.367188" xlink:href="#Cmr10-46"/>
      <use x="429.052734" xlink:href="#Cmr10-117"/>
      <use x="484.570312" xlink:href="#Cmr10-46"/>
      <use x="512.255859" xlink:href="#Cmr10-41"/>
     </g>
    </g>
   </g>
   <g id="line2d_52">
    <path clip-path="url(#pbb42bf62e4)" d="M 46.882527 313.168132 
L 73.099943 313.054087 
L 73.408989 312.601746 
L 73.872558 311.483601 
L 74.49065 309.360538 
L 75.237512 305.939723 
L 76.16465 300.55755 
L 77.349327 292.258863 
L 79.821697 272.835421 
L 81.289666 262.446217 
L 82.294066 256.803672 
L 83.143943 253.264662 
L 83.813543 251.359832 
L 84.380127 250.376583 
L 84.817943 250.010006 
L 85.20425 249.965469 
L 85.590558 250.176165 
L 86.00262 250.667789 
L 86.569204 251.776085 
L 87.161543 253.422256 
L 87.934158 256.241815 
L 88.861297 260.460877 
L 90.148989 267.436118 
L 94.990712 294.826615 
L 95.943604 298.478168 
L 96.71622 300.649023 
L 97.360066 301.861639 
L 97.875143 302.422639 
L 98.312958 302.608155 
L 98.699266 302.548886 
L 99.111327 302.257166 
L 99.60065 301.610517 
L 100.167235 300.469332 
L 100.862589 298.528529 
L 101.712466 295.433009 
L 102.768374 290.686351 
L 104.262097 282.888881 
L 106.785974 269.724655 
L 107.867635 265.195544 
L 108.76902 262.298901 
L 109.490127 260.645878 
L 110.10822 259.729436 
L 110.64905 259.314895 
L 111.061112 259.237811 
L 111.498927 259.378276 
L 111.98825 259.799668 
L 112.529081 260.568794 
L 113.198681 261.93575 
L 113.971297 264.01359 
L 115.078712 267.758158 
L 116.546681 273.650797 
L 119.740158 286.770486 
L 120.976343 290.730888 
L 121.82622 292.791599 
L 122.573081 294.079758 
L 123.216927 294.766661 
L 123.757758 295.03046 
L 124.247081 295.020182 
L 124.736404 294.775226 
L 125.251481 294.271611 
L 125.921081 293.254103 
L 126.642189 291.738118 
L 127.569327 289.232034 
L 128.754004 285.338437 
L 133.260927 269.854841 
L 134.162312 267.812973 
L 134.934927 266.5625 
L 135.630281 265.861892 
L 136.171112 265.60152 
L 136.660435 265.579251 
L 137.149758 265.755688 
L 137.76785 266.252451 
L 138.463204 267.150051 
L 139.23582 268.527284 
L 140.162958 270.617116 
L 141.656681 274.692287 
L 145.26222 284.905054 
L 146.318127 287.154193 
L 147.193758 288.553695 
L 147.94062 289.363933 
L 148.635974 289.780186 
L 149.254066 289.869261 
L 149.82065 289.720232 
L 150.438743 289.312543 
L 151.108343 288.596519 
L 152.009727 287.224425 
L 153.117143 285.009546 
L 154.456343 281.809705 
L 157.546804 274.298303 
L 158.576958 272.362639 
L 159.581358 270.968276 
L 160.302466 270.30878 
L 161.023574 269.954194 
L 161.66742 269.897665 
L 162.33702 270.092945 
L 162.980866 270.514337 
L 163.830743 271.391381 
L 164.835143 272.831995 
L 165.942558 274.803631 
L 167.436281 277.815044 
L 169.36782 281.669241 
L 170.604004 283.741943 
L 171.659912 285.091769 
L 172.509789 285.836914 
L 173.282404 286.222333 
L 173.92625 286.325112 
L 174.750374 286.162379 
L 175.342712 285.85233 
L 176.141081 285.194547 
L 177.093974 284.09139 
L 178.330158 282.263644 
L 182.837081 274.974928 
L 183.815727 273.909457 
L 184.820127 273.181442 
L 185.592743 272.895375 
L 186.365358 272.854263 
L 187.189481 273.073524 
L 187.910589 273.474361 
L 188.760466 274.171542 
L 189.764866 275.252431 
L 191.258589 277.212076 
L 194.580835 281.664102 
L 195.714004 282.782676 
L 196.82142 283.526108 
L 197.594035 283.813888 
L 198.546927 283.892685 
L 199.551327 283.649442 
L 200.426958 283.183513 
L 201.482866 282.352719 
L 201.894927 282.119754 
L 202.126712 282.272209 
L 202.461512 282.79638 
L 202.950835 284.040001 
L 203.620435 286.49641 
L 204.39305 290.246116 
L 205.371697 296.114431 
L 206.839666 306.396574 
L 209.518066 325.231438 
L 210.625481 331.386677 
L 211.526866 335.172356 
L 212.247974 337.284456 
L 212.814558 338.337937 
L 213.303881 338.805579 
L 213.690189 338.889515 
L 214.050743 338.740486 
L 214.462804 338.310529 
L 214.952127 337.448902 
L 215.595974 335.768472 
L 216.368589 333.00544 
L 217.269974 328.904917 
L 218.506158 322.138316 
L 222.60102 298.78205 
L 223.528158 295.170924 
L 224.249266 293.147898 
L 224.867358 292.013908 
L 225.382435 291.510293 
L 225.768743 291.395523 
L 226.15505 291.503441 
L 226.592866 291.892286 
L 227.133697 292.747062 
L 227.726035 294.124295 
L 228.49865 296.545074 
L 229.451543 300.335891 
L 230.764989 306.559649 
L 234.087235 322.690922 
L 235.143143 326.555226 
L 235.99302 328.874083 
L 236.688374 330.176117 
L 237.254958 330.819682 
L 237.770035 331.07149 
L 238.182097 331.047508 
L 238.645666 330.783709 
L 239.160743 330.204209 
L 239.753081 329.18653 
L 240.474189 327.480576 
L 241.375574 324.724226 
L 242.534497 320.403071 
L 247.092927 302.544603 
L 247.994312 300.281076 
L 248.71542 299.01707 
L 249.333512 298.351236 
L 249.848589 298.099429 
L 250.312158 298.108336 
L 250.801481 298.355861 
L 251.342312 298.903671 
L 251.960404 299.861225 
L 252.707266 301.444187 
L 253.660158 304.030097 
L 254.94785 308.232714 
L 258.501881 320.187578 
L 259.532035 322.738543 
L 260.381912 324.288102 
L 261.10302 325.16035 
L 261.695358 325.557246 
L 262.236189 325.663965 
L 262.751266 325.540802 
L 263.31785 325.158979 
L 263.961697 324.427024 
L 264.708558 323.214065 
L 265.635697 321.23986 
L 266.820374 318.147937 
L 271.275789 305.954112 
L 272.202927 304.302803 
L 272.975543 303.347647 
L 273.645143 302.855851 
L 274.237481 302.689007 
L 274.804066 302.764207 
L 275.396404 303.082135 
L 276.04025 303.690413 
L 276.812866 304.749718 
L 277.740004 306.423982 
L 278.976189 309.15755 
L 283.122558 318.725895 
L 284.126958 320.305431 
L 284.951081 321.217077 
L 285.672189 321.702706 
L 286.316035 321.88137 
L 286.934127 321.825869 
L 287.577974 321.538089 
L 288.299081 320.951908 
L 289.123204 319.973285 
L 290.10185 318.451819 
L 291.466804 315.870877 
L 295.072343 308.852126 
L 296.12825 307.377596 
L 297.003881 306.511515 
L 297.750743 306.059118 
L 298.446097 305.885936 
L 299.115697 305.946232 
L 299.81105 306.237267 
L 300.583666 306.815911 
L 301.48505 307.791451 
L 302.592466 309.342894 
L 304.266466 312.126327 
L 306.687327 316.100758 
L 307.872004 317.623595 
L 308.824897 318.518454 
L 309.674774 319.027722 
L 310.447389 319.238589 
L 311.19425 319.211695 
L 311.966866 318.951323 
L 312.816743 318.410536 
L 313.795389 317.498719 
L 314.980066 316.072666 
L 316.937358 313.313134 
L 318.946158 310.608612 
L 320.156589 309.338269 
L 321.135235 308.61111 
L 322.010866 308.223806 
L 322.809235 308.099787 
L 323.633358 308.201538 
L 324.483235 308.539679 
L 325.436127 309.172281 
L 326.569297 310.210174 
L 328.166035 312.012739 
L 331.153481 315.421906 
L 332.389666 316.471104 
L 333.41982 317.068248 
L 334.346958 317.359625 
L 335.248343 317.408959 
L 336.149727 317.23098 
L 337.10262 316.813357 
L 338.210035 316.072666 
L 339.574989 314.881033 
L 344.13342 310.686724 
L 345.292343 310.041446 
L 346.322497 309.719064 
L 347.301143 309.647119 
L 348.279789 309.8018 
L 349.335697 310.203493 
L 350.571881 310.93305 
L 352.194374 312.176637 
L 355.72265 314.949295 
L 357.010343 315.644764 
L 358.143512 316.016137 
L 359.19942 316.137073 
L 360.255327 316.038235 
L 361.41425 315.693755 
L 362.727697 315.053273 
L 364.478958 313.926648 
L 367.878466 311.701098 
L 369.269174 311.085505 
L 370.505358 310.780938 
L 371.690035 310.725951 
L 372.874712 310.89999 
L 374.213912 311.341595 
L 375.784897 312.106987 
L 380.884158 314.775428 
L 381.734035 315.027407 
L 381.734035 315.027407 
" style="fill:none;stroke:#d9524f;stroke-linecap:square;stroke-width:1.5;"/>
   </g>
   <g id="patch_13">
    <path d="M 46.908281 343.34 
L 46.908281 245.504706 
" style="fill:none;stroke:#000000;stroke-linecap:square;stroke-linejoin:miter;stroke-width:0.8;"/>
   </g>
   <g id="patch_14">
    <path d="M 381.708281 343.34 
L 381.708281 245.504706 
" style="fill:none;stroke:#000000;stroke-linecap:square;stroke-linejoin:miter;stroke-width:0.8;"/>
   </g>
   <g id="patch_15">
    <path d="M 46.908281 343.34 
L 381.708281 343.34 
" style="fill:none;stroke:#000000;stroke-linecap:square;stroke-linejoin:miter;stroke-width:0.8;"/>
   </g>
   <g id="patch_16">
    <path d="M 46.908281 245.504706 
L 381.708281 245.504706 
" style="fill:none;stroke:#000000;stroke-linecap:square;stroke-linejoin:miter;stroke-width:0.8;"/>
   </g>
  </g>
 </g>
 <defs>
  <clipPath id="p3c9207d3a5">
   <rect height="97.835294" width="334.8" x="46.908281" y="10.7"/>
  </clipPath>
  <clipPath id="p8c1cfa4a69">
   <rect height="97.835294" width="334.8" x="46.908281" y="128.102353"/>
  </clipPath>
  <clipPath id="pbb42bf62e4">
   <rect height="97.835294" width="334.8" x="46.908281" y="245.504706"/>
  </clipPath>
 </defs>
</svg>
