<?xml version="1.0" encoding="utf-8" standalone="no"?>
<!DOCTYPE svg PUBLIC "-//W3C//DTD SVG 1.1//EN"
  "http://www.w3.org/Graphics/SVG/1.1/DTD/svg11.dtd">
<!-- Created with matplotlib (https://matplotlib.org/) -->
<svg height="420.48pt" version="1.1" viewBox="0 0 420.48 420.48" width="420.48pt" xmlns="http://www.w3.org/2000/svg" xmlns:xlink="http://www.w3.org/1999/xlink">
 <defs>
  <style type="text/css">
*{stroke-linecap:butt;stroke-linejoin:round;}
  </style>
 </defs>
 <g id="figure_1">
  <g id="patch_1">
   <path d="M 0 420.48 
L 420.48 420.48 
L 420.48 0 
L 0 0 
z
" style="fill:#ffffff;"/>
  </g>
  <g id="axes_1">
   <g id="patch_2">
    <path d="M 36.018125 123.06875 
L 407.28 123.06875 
L 407.28 7.2 
L 36.018125 7.2 
z
" style="fill:#ffffff;"/>
   </g>
   <g id="matplotlib.axis_1">
    <g id="xtick_1">
     <g id="line2d_1">
      <path clip-path="url(#pc70eb3c600)" d="M 64.576731 123.06875 
L 64.576731 7.2 
" style="fill:none;stroke:#cbcbcb;"/>
     </g>
     <g id="line2d_2"/>
    </g>
    <g id="xtick_2">
     <g id="line2d_3">
      <path clip-path="url(#pc70eb3c600)" d="M 121.693942 123.06875 
L 121.693942 7.2 
" style="fill:none;stroke:#cbcbcb;"/>
     </g>
     <g id="line2d_4"/>
    </g>
    <g id="xtick_3">
     <g id="line2d_5">
      <path clip-path="url(#pc70eb3c600)" d="M 178.811154 123.06875 
L 178.811154 7.2 
" style="fill:none;stroke:#cbcbcb;"/>
     </g>
     <g id="line2d_6"/>
    </g>
    <g id="xtick_4">
     <g id="line2d_7">
      <path clip-path="url(#pc70eb3c600)" d="M 235.928365 123.06875 
L 235.928365 7.2 
" style="fill:none;stroke:#cbcbcb;"/>
     </g>
     <g id="line2d_8"/>
    </g>
    <g id="xtick_5">
     <g id="line2d_9">
      <path clip-path="url(#pc70eb3c600)" d="M 293.045577 123.06875 
L 293.045577 7.2 
" style="fill:none;stroke:#cbcbcb;"/>
     </g>
     <g id="line2d_10"/>
    </g>
    <g id="xtick_6">
     <g id="line2d_11">
      <path clip-path="url(#pc70eb3c600)" d="M 350.162788 123.06875 
L 350.162788 7.2 
" style="fill:none;stroke:#cbcbcb;"/>
     </g>
     <g id="line2d_12"/>
    </g>
    <g id="xtick_7">
     <g id="line2d_13">
      <path clip-path="url(#pc70eb3c600)" d="M 407.28 123.06875 
L 407.28 7.2 
" style="fill:none;stroke:#cbcbcb;"/>
     </g>
     <g id="line2d_14"/>
    </g>
   </g>
   <g id="matplotlib.axis_2">
    <g id="ytick_1">
     <g id="line2d_15">
      <path clip-path="url(#pc70eb3c600)" d="M 36.018125 111.742874 
L 407.28 111.742874 
" style="fill:none;stroke:#cbcbcb;"/>
     </g>
     <g id="line2d_16"/>
     <g id="text_1">
      <!-- -0.15 -->
      <defs>
       <path d="M 1.125 18.5 
L 1.125 24.703125 
L 27.59375 24.703125 
L 27.59375 18.5 
z
" id="Cmr10-45"/>
       <path d="M 25 -2.203125 
Q 12.75 -2.203125 8.328125 7.875 
Q 3.90625 17.96875 3.90625 31.890625 
Q 3.90625 40.578125 5.484375 48.234375 
Q 7.078125 55.90625 11.78125 61.25 
Q 16.5 66.609375 25 66.609375 
Q 31.59375 66.609375 35.78125 63.375 
Q 39.984375 60.15625 42.1875 55.046875 
Q 44.390625 49.953125 45.1875 44.109375 
Q 46 38.28125 46 31.890625 
Q 46 23.296875 44.40625 15.796875 
Q 42.828125 8.296875 38.1875 3.046875 
Q 33.546875 -2.203125 25 -2.203125 
z
M 25 0.390625 
Q 30.5625 0.390625 33.296875 6.09375 
Q 36.03125 11.8125 36.671875 18.75 
Q 37.3125 25.6875 37.3125 33.5 
Q 37.3125 41.015625 36.671875 47.359375 
Q 36.03125 53.71875 33.3125 58.859375 
Q 30.609375 64.015625 25 64.015625 
Q 19.34375 64.015625 16.609375 58.828125 
Q 13.875 53.65625 13.234375 47.328125 
Q 12.59375 41.015625 12.59375 33.5 
Q 12.59375 27.9375 12.859375 23 
Q 13.140625 18.0625 14.3125 12.8125 
Q 15.484375 7.5625 18.09375 3.96875 
Q 20.703125 0.390625 25 0.390625 
z
" id="Cmr10-48"/>
       <path d="M 8.40625 5.515625 
Q 8.40625 7.765625 10.0625 9.375 
Q 11.71875 10.984375 13.921875 10.984375 
Q 15.28125 10.984375 16.59375 10.25 
Q 17.921875 9.515625 18.65625 8.203125 
Q 19.390625 6.890625 19.390625 5.515625 
Q 19.390625 3.328125 17.765625 1.65625 
Q 16.15625 0 13.921875 0 
Q 11.71875 0 10.0625 1.65625 
Q 8.40625 3.328125 8.40625 5.515625 
z
" id="Cmr10-46"/>
       <path d="M 9.28125 0 
L 9.28125 3.515625 
Q 21.78125 3.515625 21.78125 6.6875 
L 21.78125 59.1875 
Q 16.609375 56.6875 8.6875 56.6875 
L 8.6875 60.203125 
Q 20.953125 60.203125 27.203125 66.609375 
L 28.609375 66.609375 
Q 28.953125 66.609375 29.265625 66.328125 
Q 29.59375 66.0625 29.59375 65.71875 
L 29.59375 6.6875 
Q 29.59375 3.515625 42.09375 3.515625 
L 42.09375 0 
z
" id="Cmr10-49"/>
       <path d="M 8.6875 11.375 
Q 9.71875 8.453125 11.84375 6.046875 
Q 13.96875 3.65625 16.875 2.3125 
Q 19.78125 0.984375 22.90625 0.984375 
Q 30.125 0.984375 32.859375 6.59375 
Q 35.59375 12.203125 35.59375 20.21875 
Q 35.59375 23.6875 35.46875 26.046875 
Q 35.359375 28.421875 34.8125 30.609375 
Q 33.890625 34.125 31.5625 36.765625 
Q 29.25 39.40625 25.875 39.40625 
Q 22.515625 39.40625 20.09375 38.375 
Q 17.671875 37.359375 16.15625 35.984375 
Q 14.65625 34.625 13.484375 33.109375 
Q 12.3125 31.59375 12.015625 31.5 
L 10.890625 31.5 
Q 10.640625 31.5 10.265625 31.8125 
Q 9.90625 32.125 9.90625 32.421875 
L 9.90625 65.828125 
Q 9.90625 66.0625 10.21875 66.328125 
Q 10.546875 66.609375 10.890625 66.609375 
L 11.1875 66.609375 
Q 17.921875 63.375 25.484375 63.375 
Q 32.90625 63.375 39.796875 66.609375 
L 40.09375 66.609375 
Q 40.4375 66.609375 40.71875 66.359375 
Q 41.015625 66.109375 41.015625 65.828125 
L 41.015625 64.890625 
Q 41.015625 64.40625 40.828125 64.40625 
Q 37.40625 59.859375 32.25 57.3125 
Q 27.09375 54.78125 21.578125 54.78125 
Q 17.578125 54.78125 13.375 55.90625 
L 13.375 37.015625 
Q 16.703125 39.703125 19.3125 40.84375 
Q 21.921875 42 25.984375 42 
Q 31.5 42 35.859375 38.8125 
Q 40.234375 35.640625 42.578125 30.53125 
Q 44.921875 25.4375 44.921875 20.125 
Q 44.921875 14.109375 41.96875 8.984375 
Q 39.015625 3.859375 33.9375 0.828125 
Q 28.859375 -2.203125 22.90625 -2.203125 
Q 17.96875 -2.203125 13.84375 0.328125 
Q 9.71875 2.875 7.34375 7.171875 
Q 4.984375 11.46875 4.984375 16.3125 
Q 4.984375 18.5625 6.4375 19.96875 
Q 7.90625 21.390625 10.109375 21.390625 
Q 12.3125 21.390625 13.796875 19.9375 
Q 15.28125 18.5 15.28125 16.3125 
Q 15.28125 14.15625 13.796875 12.671875 
Q 12.3125 11.1875 10.109375 11.1875 
Q 9.765625 11.1875 9.328125 11.25 
Q 8.890625 11.328125 8.6875 11.375 
z
" id="Cmr10-53"/>
      </defs>
      <g transform="translate(7.2 115.906312)scale(0.12 -0.12)">
       <use xlink:href="#Cmr10-45"/>
       <use x="33.300781" xlink:href="#Cmr10-48"/>
       <use x="83.300781" xlink:href="#Cmr10-46"/>
       <use x="110.986328" xlink:href="#Cmr10-49"/>
       <use x="160.986328" xlink:href="#Cmr10-53"/>
      </g>
     </g>
    </g>
    <g id="ytick_2">
     <g id="line2d_17">
      <path clip-path="url(#pc70eb3c600)" d="M 36.018125 78.650837 
L 407.28 78.650837 
" style="fill:none;stroke:#cbcbcb;"/>
     </g>
     <g id="line2d_18"/>
     <g id="text_2">
      <!-- -0.10 -->
      <g transform="translate(7.2 82.814274)scale(0.12 -0.12)">
       <use xlink:href="#Cmr10-45"/>
       <use x="33.300781" xlink:href="#Cmr10-48"/>
       <use x="83.300781" xlink:href="#Cmr10-46"/>
       <use x="110.986328" xlink:href="#Cmr10-49"/>
       <use x="160.986328" xlink:href="#Cmr10-48"/>
      </g>
     </g>
    </g>
    <g id="ytick_3">
     <g id="line2d_19">
      <path clip-path="url(#pc70eb3c600)" d="M 36.018125 45.558799 
L 407.28 45.558799 
" style="fill:none;stroke:#cbcbcb;"/>
     </g>
     <g id="line2d_20"/>
     <g id="text_3">
      <!-- -0.05 -->
      <g transform="translate(7.2 49.722236)scale(0.12 -0.12)">
       <use xlink:href="#Cmr10-45"/>
       <use x="33.300781" xlink:href="#Cmr10-48"/>
       <use x="83.300781" xlink:href="#Cmr10-46"/>
       <use x="110.986328" xlink:href="#Cmr10-48"/>
       <use x="160.986328" xlink:href="#Cmr10-53"/>
      </g>
     </g>
    </g>
    <g id="ytick_4">
     <g id="line2d_21">
      <path clip-path="url(#pc70eb3c600)" d="M 36.018125 12.466761 
L 407.28 12.466761 
" style="fill:none;stroke:#cbcbcb;"/>
     </g>
     <g id="line2d_22"/>
     <g id="text_4">
      <!-- 0.00 -->
      <g transform="translate(11.195625 16.630199)scale(0.12 -0.12)">
       <use xlink:href="#Cmr10-48"/>
       <use x="50" xlink:href="#Cmr10-46"/>
       <use x="77.685547" xlink:href="#Cmr10-48"/>
       <use x="127.685547" xlink:href="#Cmr10-48"/>
      </g>
     </g>
    </g>
   </g>
   <g id="line2d_23">
    <path clip-path="url(#pc70eb3c600)" d="M 35.989566 12.466761 
L 64.576731 12.466761 
L 64.947993 117.801989 
L 207.36976 117.801989 
L 207.741021 12.466761 
L 407.308559 12.466761 
L 407.308559 12.466761 
" style="fill:none;stroke:#fc4f30;stroke-width:4;"/>
   </g>
   <g id="patch_3">
    <path d="M 36.018125 123.06875 
L 36.018125 7.2 
" style="fill:none;stroke:#ffffff;stroke-linecap:square;stroke-linejoin:miter;stroke-width:3;"/>
   </g>
   <g id="patch_4">
    <path d="M 407.28 123.06875 
L 407.28 7.2 
" style="fill:none;stroke:#ffffff;stroke-linecap:square;stroke-linejoin:miter;stroke-width:3;"/>
   </g>
   <g id="patch_5">
    <path d="M 36.018125 123.06875 
L 407.28 123.06875 
" style="fill:none;stroke:#ffffff;stroke-linecap:square;stroke-linejoin:miter;stroke-width:3;"/>
   </g>
   <g id="patch_6">
    <path d="M 36.018125 7.2 
L 407.28 7.2 
" style="fill:none;stroke:#ffffff;stroke-linecap:square;stroke-linejoin:miter;stroke-width:3;"/>
   </g>
  </g>
  <g id="axes_2">
   <g id="patch_7">
    <path d="M 36.018125 251.8975 
L 407.28 251.8975 
L 407.28 136.02875 
L 36.018125 136.02875 
z
" style="fill:#ffffff;"/>
   </g>
   <g id="matplotlib.axis_3">
    <g id="xtick_8">
     <g id="line2d_24">
      <path clip-path="url(#p9080d903bb)" d="M 64.576731 251.8975 
L 64.576731 136.02875 
" style="fill:none;stroke:#cbcbcb;"/>
     </g>
     <g id="line2d_25"/>
    </g>
    <g id="xtick_9">
     <g id="line2d_26">
      <path clip-path="url(#p9080d903bb)" d="M 121.693942 251.8975 
L 121.693942 136.02875 
" style="fill:none;stroke:#cbcbcb;"/>
     </g>
     <g id="line2d_27"/>
    </g>
    <g id="xtick_10">
     <g id="line2d_28">
      <path clip-path="url(#p9080d903bb)" d="M 178.811154 251.8975 
L 178.811154 136.02875 
" style="fill:none;stroke:#cbcbcb;"/>
     </g>
     <g id="line2d_29"/>
    </g>
    <g id="xtick_11">
     <g id="line2d_30">
      <path clip-path="url(#p9080d903bb)" d="M 235.928365 251.8975 
L 235.928365 136.02875 
" style="fill:none;stroke:#cbcbcb;"/>
     </g>
     <g id="line2d_31"/>
    </g>
    <g id="xtick_12">
     <g id="line2d_32">
      <path clip-path="url(#p9080d903bb)" d="M 293.045577 251.8975 
L 293.045577 136.02875 
" style="fill:none;stroke:#cbcbcb;"/>
     </g>
     <g id="line2d_33"/>
    </g>
    <g id="xtick_13">
     <g id="line2d_34">
      <path clip-path="url(#p9080d903bb)" d="M 350.162788 251.8975 
L 350.162788 136.02875 
" style="fill:none;stroke:#cbcbcb;"/>
     </g>
     <g id="line2d_35"/>
    </g>
    <g id="xtick_14">
     <g id="line2d_36">
      <path clip-path="url(#p9080d903bb)" d="M 407.28 251.8975 
L 407.28 136.02875 
" style="fill:none;stroke:#cbcbcb;"/>
     </g>
     <g id="line2d_37"/>
    </g>
   </g>
   <g id="matplotlib.axis_4">
    <g id="ytick_5">
     <g id="line2d_38">
      <path clip-path="url(#p9080d903bb)" d="M 36.018125 225.555231 
L 407.28 225.555231 
" style="fill:none;stroke:#cbcbcb;"/>
     </g>
     <g id="line2d_39"/>
     <g id="text_5">
      <!-- 46 -->
      <defs>
       <path d="M 2.78125 16.5 
L 2.78125 20.015625 
L 33.6875 66.109375 
Q 34.03125 66.609375 34.71875 66.609375 
L 36.1875 66.609375 
Q 37.3125 66.609375 37.3125 65.484375 
L 37.3125 20.015625 
L 47.125 20.015625 
L 47.125 16.5 
L 37.3125 16.5 
L 37.3125 6.6875 
Q 37.3125 4.640625 40.234375 4.078125 
Q 43.171875 3.515625 47.015625 3.515625 
L 47.015625 0 
L 19.484375 0 
L 19.484375 3.515625 
Q 23.34375 3.515625 26.265625 4.078125 
Q 29.203125 4.640625 29.203125 6.6875 
L 29.203125 16.5 
z
M 6.109375 20.015625 
L 29.78125 20.015625 
L 29.78125 55.421875 
z
" id="Cmr10-52"/>
       <path d="M 25 -2.203125 
Q 18.796875 -2.203125 14.640625 1.09375 
Q 10.5 4.390625 8.21875 9.640625 
Q 5.953125 14.890625 5.078125 20.65625 
Q 4.203125 26.421875 4.203125 32.328125 
Q 4.203125 40.234375 7.28125 48.1875 
Q 10.359375 56.15625 16.328125 61.375 
Q 22.3125 66.609375 30.515625 66.609375 
Q 33.9375 66.609375 36.890625 65.3125 
Q 39.84375 64.015625 41.53125 61.5 
Q 43.21875 58.984375 43.21875 55.421875 
Q 43.21875 53.375 41.828125 51.984375 
Q 40.4375 50.59375 38.375 50.59375 
Q 36.421875 50.59375 35 52 
Q 33.59375 53.421875 33.59375 55.421875 
Q 33.59375 57.375 35 58.78125 
Q 36.421875 60.203125 38.375 60.203125 
L 38.921875 60.203125 
Q 37.640625 62.015625 35.328125 62.859375 
Q 33.015625 63.71875 30.515625 63.71875 
Q 27.484375 63.71875 24.921875 62.390625 
Q 22.359375 61.078125 20.3125 58.828125 
Q 18.265625 56.59375 16.890625 53.875 
Q 15.53125 51.171875 14.765625 47.703125 
Q 14.015625 44.234375 13.8125 41.203125 
Q 13.625 38.1875 13.625 33.59375 
Q 15.375 37.703125 18.59375 40.3125 
Q 21.828125 42.921875 25.875 42.921875 
Q 30.328125 42.921875 33.984375 41.109375 
Q 37.640625 39.3125 40.28125 36.109375 
Q 42.921875 32.90625 44.3125 28.796875 
Q 45.703125 24.703125 45.703125 20.515625 
Q 45.703125 14.65625 43.09375 9.34375 
Q 40.484375 4.046875 35.734375 0.921875 
Q 31 -2.203125 25 -2.203125 
z
M 25 0.984375 
Q 28.859375 0.984375 31.203125 2.734375 
Q 33.546875 4.5 34.640625 7.390625 
Q 35.75 10.296875 36.015625 13.25 
Q 36.28125 16.21875 36.28125 20.515625 
Q 36.28125 26.171875 35.734375 30.171875 
Q 35.203125 34.1875 32.8125 37.234375 
Q 30.421875 40.28125 25.484375 40.28125 
Q 21.4375 40.28125 18.828125 37.546875 
Q 16.21875 34.8125 15.015625 30.640625 
Q 13.8125 26.46875 13.8125 22.609375 
Q 13.8125 21.296875 13.921875 20.609375 
Q 13.921875 20.453125 13.890625 20.359375 
Q 13.875 20.265625 13.8125 20.125 
Q 13.8125 15.828125 14.6875 11.421875 
Q 15.578125 7.03125 18.0625 4 
Q 20.5625 0.984375 25 0.984375 
z
" id="Cmr10-54"/>
      </defs>
      <g transform="translate(20.518125 229.718669)scale(0.12 -0.12)">
       <use xlink:href="#Cmr10-52"/>
       <use x="50" xlink:href="#Cmr10-54"/>
      </g>
     </g>
    </g>
    <g id="ytick_6">
     <g id="line2d_40">
      <path clip-path="url(#p9080d903bb)" d="M 36.018125 183.426603 
L 407.28 183.426603 
" style="fill:none;stroke:#cbcbcb;"/>
     </g>
     <g id="line2d_41"/>
     <g id="text_6">
      <!-- 48 -->
      <defs>
       <path d="M 4.203125 15.1875 
Q 4.203125 21.1875 8.15625 25.796875 
Q 12.109375 30.421875 18.3125 33.5 
L 14.59375 35.890625 
Q 11.1875 38.140625 9.03125 41.875 
Q 6.890625 45.609375 6.890625 49.703125 
Q 6.890625 54.5 9.40625 58.34375 
Q 11.921875 62.203125 16.09375 64.40625 
Q 20.265625 66.609375 25 66.609375 
Q 29.4375 66.609375 33.5625 64.796875 
Q 37.703125 62.984375 40.359375 59.609375 
Q 43.015625 56.25 43.015625 51.609375 
Q 43.015625 48.25 41.421875 45.359375 
Q 39.84375 42.484375 37.078125 40.1875 
Q 34.328125 37.890625 31.203125 36.28125 
L 36.921875 32.625 
Q 40.875 30.03125 43.28125 25.828125 
Q 45.703125 21.625 45.703125 17 
Q 45.703125 11.578125 42.796875 7.125 
Q 39.890625 2.6875 35.109375 0.234375 
Q 30.328125 -2.203125 25 -2.203125 
Q 19.828125 -2.203125 15.015625 -0.09375 
Q 10.203125 2 7.203125 5.984375 
Q 4.203125 9.96875 4.203125 15.1875 
z
M 9.625 15.1875 
Q 9.625 11.234375 11.796875 7.953125 
Q 13.96875 4.6875 17.53125 2.828125 
Q 21.09375 0.984375 25 0.984375 
Q 30.8125 0.984375 35.546875 4.375 
Q 40.28125 7.765625 40.28125 13.375 
Q 40.28125 15.28125 39.515625 17.15625 
Q 38.765625 19.046875 37.421875 20.578125 
Q 36.078125 22.125 34.421875 23.09375 
L 21 31.78125 
Q 17.875 30.125 15.25 27.578125 
Q 12.640625 25.046875 11.125 21.875 
Q 9.625 18.703125 9.625 15.1875 
z
M 16.5 45.703125 
L 28.609375 37.890625 
Q 32.8125 40.328125 35.5 43.796875 
Q 38.1875 47.265625 38.1875 51.609375 
Q 38.1875 54.984375 36.296875 57.78125 
Q 34.421875 60.59375 31.390625 62.15625 
Q 28.375 63.71875 24.90625 63.71875 
Q 21.875 63.71875 18.796875 62.546875 
Q 15.71875 61.375 13.71875 59.046875 
Q 11.71875 56.734375 11.71875 53.609375 
Q 11.71875 48.921875 16.5 45.703125 
z
" id="Cmr10-56"/>
      </defs>
      <g transform="translate(20.518125 187.59004)scale(0.12 -0.12)">
       <use xlink:href="#Cmr10-52"/>
       <use x="50" xlink:href="#Cmr10-56"/>
      </g>
     </g>
    </g>
    <g id="ytick_7">
     <g id="line2d_42">
      <path clip-path="url(#p9080d903bb)" d="M 36.018125 141.297974 
L 407.28 141.297974 
" style="fill:none;stroke:#cbcbcb;"/>
     </g>
     <g id="line2d_43"/>
     <g id="text_7">
      <!-- 50 -->
      <g transform="translate(20.518125 145.461412)scale(0.12 -0.12)">
       <use xlink:href="#Cmr10-53"/>
       <use x="50" xlink:href="#Cmr10-48"/>
      </g>
     </g>
    </g>
   </g>
   <g id="line2d_44">
    <path clip-path="url(#p9080d903bb)" d="M 35.989566 141.295511 
L 64.862317 141.396086 
L 65.290696 141.731335 
L 65.462048 141.83191 
L 65.890427 142.167159 
L 66.03322 142.267733 
L 66.43304 142.569457 
L 66.575833 142.670032 
L 66.975654 142.971756 
L 67.147005 143.072331 
L 67.603943 143.441105 
L 67.775295 143.541679 
L 68.203674 143.876928 
L 68.375025 143.977503 
L 68.831963 144.346277 
L 69.003315 144.446852 
L 69.431694 144.782101 
L 69.603045 144.882675 
L 70.059983 145.251449 
L 70.231335 145.352024 
L 70.659714 145.687273 
L 70.802507 145.787848 
L 71.202327 146.089572 
L 71.373679 146.190146 
L 71.802058 146.525395 
L 71.944851 146.62597 
L 72.344672 146.927694 
L 72.487465 147.028269 
L 72.887285 147.329993 
L 73.030078 147.430568 
L 73.429899 147.732292 
L 73.60125 147.832866 
L 74.058188 148.20164 
L 74.22954 148.302215 
L 74.657919 148.637464 
L 74.82927 148.738039 
L 75.286208 149.106812 
L 75.45756 149.207387 
L 75.885939 149.542636 
L 76.05729 149.643211 
L 76.514228 150.011985 
L 76.68558 150.112559 
L 77.113959 150.447808 
L 77.256752 150.548383 
L 77.656572 150.850107 
L 77.827924 150.950682 
L 78.256303 151.285931 
L 78.399096 151.386505 
L 78.798916 151.68823 
L 78.941709 151.788804 
L 79.34153 152.090528 
L 79.484323 152.191103 
L 79.884143 152.492827 
L 80.055495 152.593402 
L 80.512433 152.962176 
L 80.683784 153.06275 
L 81.112164 153.397999 
L 81.283515 153.498574 
L 81.740453 153.867348 
L 81.911804 153.967923 
L 82.340184 154.303172 
L 82.511535 154.403746 
L 82.968473 154.77252 
L 83.139825 154.873095 
L 83.568204 155.208344 
L 83.710997 155.308918 
L 84.110817 155.610643 
L 84.282169 155.711217 
L 84.710548 156.046466 
L 84.853341 156.147041 
L 85.253161 156.448765 
L 85.395954 156.54934 
L 85.795775 156.851064 
L 85.938568 156.951638 
L 86.338388 157.253362 
L 86.50974 157.353937 
L 86.966678 157.722711 
L 87.138029 157.823286 
L 87.566408 158.158535 
L 87.73776 158.259109 
L 88.194698 158.627883 
L 88.366049 158.728458 
L 88.794428 159.063707 
L 88.96578 159.164282 
L 89.422718 159.533055 
L 89.594069 159.63363 
L 90.022449 159.968879 
L 90.165242 160.069454 
L 90.565062 160.371178 
L 90.736414 160.471753 
L 91.164793 160.807002 
L 91.307586 160.907576 
L 91.707406 161.2093 
L 91.850199 161.309875 
L 92.25002 161.611599 
L 92.392813 161.712174 
L 92.792633 162.013898 
L 92.963985 162.114473 
L 93.420923 162.483246 
L 93.592274 162.583821 
L 94.020653 162.91907 
L 94.192005 163.019645 
L 94.648943 163.388419 
L 94.820294 163.488993 
L 95.248673 163.824242 
L 95.420025 163.924817 
L 95.876963 164.293591 
L 96.048314 164.394166 
L 96.476693 164.729415 
L 96.619486 164.829989 
L 97.019307 165.131713 
L 97.190659 165.232288 
L 97.619038 165.567537 
L 97.761831 165.668112 
L 98.161651 165.969836 
L 98.304444 166.07041 
L 98.704265 166.372135 
L 98.847058 166.472709 
L 99.246878 166.774433 
L 99.41823 166.875008 
L 99.875168 167.243782 
L 100.046519 167.344357 
L 100.474898 167.679606 
L 100.64625 167.78018 
L 101.103188 168.148954 
L 101.274539 168.249529 
L 101.702918 168.584778 
L 101.87427 168.685352 
L 102.331208 169.054126 
L 102.502559 169.154701 
L 102.930938 169.48995 
L 103.073731 169.590525 
L 103.473552 169.892249 
L 103.644903 169.992823 
L 104.073283 170.328072 
L 104.216076 170.428647 
L 104.615896 170.730371 
L 104.758689 170.830946 
L 105.15851 171.13267 
L 105.301303 171.233245 
L 105.701123 171.534969 
L 105.872475 171.635543 
L 106.329412 172.004317 
L 106.500764 172.104892 
L 106.929143 172.440141 
L 107.100495 172.540716 
L 107.557432 172.90949 
L 107.728784 173.010064 
L 108.157163 173.345313 
L 108.328515 173.445888 
L 108.785453 173.814662 
L 108.956804 173.915236 
L 109.385183 174.250485 
L 109.527976 174.35106 
L 109.927797 174.652784 
L 110.099148 174.753359 
L 110.527527 175.088608 
L 110.67032 175.189183 
L 111.070141 175.490907 
L 111.212934 175.591481 
L 111.612754 175.893205 
L 111.755548 175.99378 
L 112.155368 176.295504 
L 112.32672 176.396079 
L 112.783657 176.764853 
L 112.955009 176.865427 
L 113.383388 177.200676 
L 113.55474 177.301251 
L 114.011677 177.670025 
L 114.183029 177.7706 
L 114.611408 178.105849 
L 114.78276 178.206423 
L 115.239697 178.575197 
L 115.411049 178.675772 
L 115.839428 179.011021 
L 115.982221 179.111596 
L 116.382042 179.41332 
L 116.553393 179.513894 
L 116.981772 179.849143 
L 117.124565 179.949718 
L 117.524386 180.251442 
L 117.667179 180.352017 
L 118.066999 180.653741 
L 118.209792 180.754315 
L 118.609613 181.05604 
L 118.780965 181.156614 
L 119.237902 181.525388 
L 119.409254 181.625963 
L 119.837633 181.961212 
L 120.008985 182.061786 
L 120.465922 182.43056 
L 120.637274 182.531135 
L 121.065653 182.866384 
L 121.237005 182.966959 
L 121.693942 183.335733 
L 121.865294 183.436307 
L 122.293673 183.771556 
L 122.436466 183.872131 
L 122.836287 184.173855 
L 123.007638 184.27443 
L 123.436017 184.609679 
L 123.57881 184.710253 
L 123.978631 185.011977 
L 124.121424 185.112552 
L 124.521244 185.414276 
L 124.664037 185.514851 
L 125.063858 185.816575 
L 125.235209 185.91715 
L 125.692147 186.285924 
L 125.863499 186.386498 
L 126.291878 186.721747 
L 126.463229 186.822322 
L 126.920167 187.191096 
L 127.091519 187.29167 
L 127.519898 187.626919 
L 127.69125 187.727494 
L 128.148187 188.096268 
L 128.319539 188.196843 
L 128.747918 188.532092 
L 128.890711 188.632666 
L 129.290531 188.93439 
L 129.461883 189.034965 
L 129.890262 189.370214 
L 130.033055 189.470789 
L 130.432876 189.772513 
L 130.575669 189.873088 
L 130.975489 190.174812 
L 131.118282 190.275386 
L 131.518103 190.57711 
L 131.689454 190.677685 
L 132.146392 191.046459 
L 132.317744 191.147034 
L 132.746123 191.482283 
L 132.917474 191.582857 
L 133.374412 191.951631 
L 133.545764 192.052206 
L 133.974143 192.387455 
L 134.145494 192.48803 
L 134.602432 192.856803 
L 134.773784 192.957378 
L 135.202163 193.292627 
L 135.344956 193.393202 
L 135.744776 193.694926 
L 135.916128 193.795501 
L 136.344507 194.130749 
L 136.4873 194.231324 
L 136.887121 194.533048 
L 137.029914 194.633623 
L 137.429734 194.935347 
L 137.572527 195.035922 
L 137.972348 195.337646 
L 138.143699 195.43822 
L 138.600637 195.806994 
L 138.771989 195.907569 
L 139.200368 196.242818 
L 139.371719 196.343393 
L 139.828657 196.712167 
L 140.000009 196.812741 
L 140.428388 197.14799 
L 140.599739 197.248565 
L 141.056677 197.617339 
L 141.228029 197.717913 
L 141.656408 198.053162 
L 141.799201 198.153737 
L 142.199021 198.455461 
L 142.370373 198.556036 
L 142.798752 198.891285 
L 142.941545 198.99186 
L 143.341365 199.293584 
L 143.484159 199.394158 
L 143.883979 199.695882 
L 144.026772 199.796457 
L 144.426592 200.098181 
L 144.597944 200.198756 
L 145.054882 200.56753 
L 145.226233 200.668104 
L 145.654613 201.003353 
L 145.825964 201.103928 
L 146.282902 201.472702 
L 146.454254 201.573277 
L 146.882633 201.908526 
L 147.053984 202.0091 
L 147.510922 202.377874 
L 147.682274 202.478449 
L 148.110653 202.813698 
L 148.253446 202.914273 
L 148.653266 203.215997 
L 148.824618 203.316571 
L 149.252997 203.65182 
L 149.39579 203.752395 
L 149.79561 204.054119 
L 149.938403 204.154694 
L 150.338224 204.456418 
L 150.481017 204.556993 
L 150.880837 204.858717 
L 151.052189 204.959291 
L 151.509127 205.328065 
L 151.680478 205.42864 
L 152.108857 205.763889 
L 152.280209 205.864464 
L 152.737147 206.233237 
L 152.908498 206.333812 
L 153.336878 206.669061 
L 153.508229 206.769636 
L 153.965167 207.13841 
L 154.136518 207.238984 
L 154.564898 207.574233 
L 154.707691 207.674808 
L 155.107511 207.976532 
L 155.278863 208.077107 
L 155.707242 208.412356 
L 155.850035 208.51293 
L 156.249855 208.814654 
L 156.392648 208.915229 
L 156.792469 209.216953 
L 156.935262 209.317528 
L 157.335082 209.619252 
L 157.506434 209.719827 
L 157.963372 210.088601 
L 158.134723 210.189175 
L 158.563102 210.524424 
L 158.734454 210.624999 
L 159.191392 210.993773 
L 159.362743 211.094348 
L 159.791122 211.429596 
L 159.962474 211.530171 
L 160.419412 211.898945 
L 160.590763 211.99952 
L 161.019142 212.334769 
L 161.161935 212.435343 
L 161.561756 212.737067 
L 161.733108 212.837642 
L 162.161487 213.172891 
L 162.30428 213.273466 
L 162.7041 213.57519 
L 162.846893 213.675765 
L 163.246714 213.977489 
L 163.389507 214.078063 
L 163.789327 214.379787 
L 163.960679 214.480362 
L 164.417617 214.849136 
L 164.588968 214.949711 
L 165.017347 215.28496 
L 165.188699 215.385534 
L 165.645637 215.754308 
L 165.816988 215.854883 
L 166.245367 216.190132 
L 166.416719 216.290707 
L 166.873657 216.65948 
L 167.045008 216.760055 
L 167.473387 217.095304 
L 167.61618 217.195879 
L 168.016001 217.497603 
L 168.187353 217.598178 
L 168.615732 217.933427 
L 168.758525 218.034001 
L 169.158345 218.335725 
L 169.301138 218.4363 
L 169.700959 218.738024 
L 169.843752 218.838599 
L 170.243572 219.140323 
L 170.414924 219.240898 
L 170.871861 219.609671 
L 171.043213 219.710246 
L 171.471592 220.045495 
L 171.642944 220.14607 
L 172.099881 220.514844 
L 172.271233 220.615418 
L 172.699612 220.950667 
L 172.870964 221.051242 
L 173.327902 221.420016 
L 173.499253 221.520591 
L 173.927632 221.85584 
L 174.070425 221.956414 
L 174.470246 222.258138 
L 174.641597 222.358713 
L 175.069976 222.693962 
L 175.21277 222.794537 
L 175.61259 223.096261 
L 175.755383 223.196835 
L 176.155204 223.49856 
L 176.297997 223.599134 
L 176.697817 223.900858 
L 176.869169 224.001433 
L 177.326106 224.370207 
L 177.497458 224.470782 
L 177.925837 224.806031 
L 178.097189 224.906605 
L 178.554126 225.275379 
L 178.725478 225.375954 
L 179.153857 225.711203 
L 179.325209 225.811777 
L 179.782146 226.180551 
L 179.953498 226.281126 
L 180.381877 226.616375 
L 180.52467 226.71695 
L 180.924491 227.018674 
L 181.095842 227.119248 
L 181.524221 227.454497 
L 181.667014 227.555072 
L 182.066835 227.856796 
L 182.209628 227.957371 
L 182.609448 228.259095 
L 182.752241 228.35967 
L 183.152062 228.661394 
L 183.323414 228.761968 
L 183.780351 229.130742 
L 183.951703 229.231317 
L 184.380082 229.566566 
L 184.551434 229.667141 
L 185.008371 230.035914 
L 185.179723 230.136489 
L 185.608102 230.471738 
L 185.779454 230.572313 
L 186.236391 230.941087 
L 186.407743 231.041661 
L 186.836122 231.37691 
L 186.978915 231.477485 
L 187.378736 231.779209 
L 187.550087 231.879784 
L 187.978466 232.215033 
L 188.121259 232.315607 
L 188.52108 232.617332 
L 188.663873 232.717906 
L 189.063693 233.01963 
L 189.206486 233.120205 
L 189.606307 233.421929 
L 189.777658 233.522504 
L 190.234596 233.891278 
L 190.405948 233.991852 
L 190.834327 234.327101 
L 191.005679 234.427676 
L 191.462616 234.79645 
L 191.633968 234.897025 
L 192.062347 235.232274 
L 192.233699 235.332848 
L 192.690636 235.701622 
L 192.861988 235.802197 
L 193.290367 236.137446 
L 193.43316 236.23802 
L 193.83298 236.539745 
L 194.004332 236.640319 
L 194.432711 236.975568 
L 194.575504 237.076143 
L 194.975325 237.377867 
L 195.118118 237.478442 
L 195.517938 237.780166 
L 195.660731 237.88074 
L 196.060552 238.182465 
L 196.231903 238.283039 
L 196.688841 238.651813 
L 196.860193 238.752388 
L 197.288572 239.087637 
L 197.459923 239.188211 
L 197.916861 239.556985 
L 198.088213 239.65756 
L 198.516592 239.992809 
L 198.687943 240.093384 
L 199.144881 240.462158 
L 199.316233 240.562732 
L 199.744612 240.897981 
L 199.887405 240.998556 
L 200.287225 241.30028 
L 200.458577 241.400855 
L 200.886956 241.736104 
L 201.029749 241.836678 
L 201.42957 242.138402 
L 201.572363 242.238977 
L 201.972183 242.540701 
L 202.114976 242.641276 
L 202.514797 242.943 
L 202.686148 243.043575 
L 203.143086 243.412348 
L 203.314438 243.512923 
L 203.742817 243.848172 
L 203.914168 243.948747 
L 204.371106 244.317521 
L 204.542458 244.418095 
L 204.970837 244.753344 
L 205.142188 244.853919 
L 205.599126 245.222693 
L 205.770478 245.323268 
L 206.198857 245.658517 
L 206.34165 245.759091 
L 206.74147 246.060815 
L 206.912822 246.16139 
L 207.341201 246.496639 
L 207.56967 246.597214 
L 207.741021 246.630739 
L 407.308559 246.630739 
L 407.308559 246.630739 
" style="fill:none;stroke:#fc4f30;stroke-width:4;"/>
   </g>
   <g id="patch_8">
    <path d="M 36.018125 251.8975 
L 36.018125 136.02875 
" style="fill:none;stroke:#ffffff;stroke-linecap:square;stroke-linejoin:miter;stroke-width:3;"/>
   </g>
   <g id="patch_9">
    <path d="M 407.28 251.8975 
L 407.28 136.02875 
" style="fill:none;stroke:#ffffff;stroke-linecap:square;stroke-linejoin:miter;stroke-width:3;"/>
   </g>
   <g id="patch_10">
    <path d="M 36.018125 251.8975 
L 407.28 251.8975 
" style="fill:none;stroke:#ffffff;stroke-linecap:square;stroke-linejoin:miter;stroke-width:3;"/>
   </g>
   <g id="patch_11">
    <path d="M 36.018125 136.02875 
L 407.28 136.02875 
" style="fill:none;stroke:#ffffff;stroke-linecap:square;stroke-linejoin:miter;stroke-width:3;"/>
   </g>
  </g>
  <g id="axes_3">
   <g id="patch_12">
    <path d="M 36.018125 380.72625 
L 407.28 380.72625 
L 407.28 264.8575 
L 36.018125 264.8575 
z
" style="fill:#ffffff;"/>
   </g>
   <g id="matplotlib.axis_5">
    <g id="xtick_15">
     <g id="line2d_45">
      <path clip-path="url(#p0cb129ce04)" d="M 64.576731 380.72625 
L 64.576731 264.8575 
" style="fill:none;stroke:#cbcbcb;"/>
     </g>
     <g id="line2d_46"/>
     <g id="text_8">
      <!-- 0 -->
      <g transform="translate(61.576731 392.553125)scale(0.12 -0.12)">
       <use xlink:href="#Cmr10-48"/>
      </g>
     </g>
    </g>
    <g id="xtick_16">
     <g id="line2d_47">
      <path clip-path="url(#p0cb129ce04)" d="M 121.693942 380.72625 
L 121.693942 264.8575 
" style="fill:none;stroke:#cbcbcb;"/>
     </g>
     <g id="line2d_48"/>
     <g id="text_9">
      <!-- 2 -->
      <defs>
       <path d="M 4.984375 0 
L 4.984375 2.6875 
Q 4.984375 2.9375 5.171875 3.21875 
L 20.703125 20.40625 
Q 24.21875 24.21875 26.40625 26.796875 
Q 28.609375 29.390625 30.75 32.765625 
Q 32.90625 36.140625 34.15625 39.625 
Q 35.40625 43.109375 35.40625 47.015625 
Q 35.40625 51.125 33.890625 54.859375 
Q 32.375 58.59375 29.375 60.84375 
Q 26.375 63.09375 22.125 63.09375 
Q 17.78125 63.09375 14.3125 60.46875 
Q 10.84375 57.859375 9.421875 53.71875 
Q 9.8125 53.8125 10.5 53.8125 
Q 12.75 53.8125 14.328125 52.296875 
Q 15.921875 50.78125 15.921875 48.390625 
Q 15.921875 46.09375 14.328125 44.5 
Q 12.75 42.921875 10.5 42.921875 
Q 8.15625 42.921875 6.5625 44.546875 
Q 4.984375 46.1875 4.984375 48.390625 
Q 4.984375 52.15625 6.390625 55.4375 
Q 7.8125 58.734375 10.46875 61.296875 
Q 13.140625 63.875 16.484375 65.234375 
Q 19.828125 66.609375 23.578125 66.609375 
Q 29.296875 66.609375 34.21875 64.1875 
Q 39.15625 61.765625 42.03125 57.34375 
Q 44.921875 52.9375 44.921875 47.015625 
Q 44.921875 42.671875 43.015625 38.765625 
Q 41.109375 34.859375 38.125 31.65625 
Q 35.15625 28.46875 30.515625 24.40625 
Q 25.875 20.359375 24.421875 19 
L 13.09375 8.109375 
L 22.703125 8.109375 
Q 29.78125 8.109375 34.546875 8.21875 
Q 39.3125 8.34375 39.59375 8.59375 
Q 40.765625 9.859375 42 17.828125 
L 44.921875 17.828125 
L 42.09375 0 
z
" id="Cmr10-50"/>
      </defs>
      <g transform="translate(118.693942 392.553125)scale(0.12 -0.12)">
       <use xlink:href="#Cmr10-50"/>
      </g>
     </g>
    </g>
    <g id="xtick_17">
     <g id="line2d_49">
      <path clip-path="url(#p0cb129ce04)" d="M 178.811154 380.72625 
L 178.811154 264.8575 
" style="fill:none;stroke:#cbcbcb;"/>
     </g>
     <g id="line2d_50"/>
     <g id="text_10">
      <!-- 4 -->
      <g transform="translate(175.811154 392.553125)scale(0.12 -0.12)">
       <use xlink:href="#Cmr10-52"/>
      </g>
     </g>
    </g>
    <g id="xtick_18">
     <g id="line2d_51">
      <path clip-path="url(#p0cb129ce04)" d="M 235.928365 380.72625 
L 235.928365 264.8575 
" style="fill:none;stroke:#cbcbcb;"/>
     </g>
     <g id="line2d_52"/>
     <g id="text_11">
      <!-- 6 -->
      <g transform="translate(232.928365 392.553125)scale(0.12 -0.12)">
       <use xlink:href="#Cmr10-54"/>
      </g>
     </g>
    </g>
    <g id="xtick_19">
     <g id="line2d_53">
      <path clip-path="url(#p0cb129ce04)" d="M 293.045577 380.72625 
L 293.045577 264.8575 
" style="fill:none;stroke:#cbcbcb;"/>
     </g>
     <g id="line2d_54"/>
     <g id="text_12">
      <!-- 8 -->
      <g transform="translate(290.045577 392.553125)scale(0.12 -0.12)">
       <use xlink:href="#Cmr10-56"/>
      </g>
     </g>
    </g>
    <g id="xtick_20">
     <g id="line2d_55">
      <path clip-path="url(#p0cb129ce04)" d="M 350.162788 380.72625 
L 350.162788 264.8575 
" style="fill:none;stroke:#cbcbcb;"/>
     </g>
     <g id="line2d_56"/>
     <g id="text_13">
      <!-- 10 -->
      <g transform="translate(344.162788 392.553125)scale(0.12 -0.12)">
       <use xlink:href="#Cmr10-49"/>
       <use x="50" xlink:href="#Cmr10-48"/>
      </g>
     </g>
    </g>
    <g id="xtick_21">
     <g id="line2d_57">
      <path clip-path="url(#p0cb129ce04)" d="M 407.28 380.72625 
L 407.28 264.8575 
" style="fill:none;stroke:#cbcbcb;"/>
     </g>
     <g id="line2d_58"/>
     <g id="text_14">
      <!-- 12 -->
      <g transform="translate(401.28 392.553125)scale(0.12 -0.12)">
       <use xlink:href="#Cmr10-49"/>
       <use x="50" xlink:href="#Cmr10-50"/>
      </g>
     </g>
    </g>
    <g id="text_15">
     <!-- Time (s) -->
     <defs>
      <path d="M 16.890625 0 
L 16.890625 3.515625 
Q 21.921875 3.515625 26.65625 4.078125 
Q 31.390625 4.640625 31.390625 6.6875 
L 31.390625 61.625 
Q 31.390625 63.765625 30.1875 64.28125 
Q 29 64.796875 26.3125 64.796875 
L 22.125 64.796875 
Q 13.875 64.796875 10.40625 61.1875 
Q 8.59375 59.375 7.8125 55.390625 
Q 7.03125 51.421875 6.5 45.40625 
L 3.609375 45.40625 
L 5.515625 68.3125 
L 66.609375 68.3125 
L 68.5 45.40625 
L 65.578125 45.40625 
Q 64.984375 51.859375 64.28125 55.640625 
Q 63.578125 59.421875 61.71875 61.1875 
Q 58.203125 64.796875 50 64.796875 
L 45.796875 64.796875 
Q 44 64.796875 43 64.640625 
Q 42 64.5 41.359375 63.796875 
Q 40.71875 63.09375 40.71875 61.625 
L 40.71875 6.6875 
Q 40.71875 4.640625 45.453125 4.078125 
Q 50.203125 3.515625 55.171875 3.515625 
L 55.171875 0 
z
" id="Cmr10-84"/>
      <path d="M 3.078125 0 
L 3.078125 3.515625 
Q 6.5 3.515625 8.6875 4.046875 
Q 10.890625 4.59375 10.890625 6.6875 
L 10.890625 33.984375 
Q 10.890625 37.84375 9.390625 38.71875 
Q 7.90625 39.59375 3.515625 39.59375 
L 3.515625 43.109375 
L 17.921875 44.1875 
L 17.921875 6.6875 
Q 17.921875 4.59375 19.828125 4.046875 
Q 21.734375 3.515625 24.90625 3.515625 
L 24.90625 0 
z
M 7.328125 61.375 
Q 7.328125 63.578125 8.984375 65.234375 
Q 10.640625 66.890625 12.796875 66.890625 
Q 14.203125 66.890625 15.515625 66.15625 
Q 16.84375 65.4375 17.578125 64.109375 
Q 18.3125 62.796875 18.3125 61.375 
Q 18.3125 59.234375 16.640625 57.5625 
Q 14.984375 55.90625 12.796875 55.90625 
Q 10.640625 55.90625 8.984375 57.5625 
Q 7.328125 59.234375 7.328125 61.375 
z
" id="Cmr10-105"/>
      <path d="M 2.984375 0 
L 2.984375 3.515625 
Q 6.390625 3.515625 8.59375 4.046875 
Q 10.796875 4.59375 10.796875 6.6875 
L 10.796875 33.984375 
Q 10.796875 36.671875 9.984375 37.859375 
Q 9.1875 39.0625 7.671875 39.328125 
Q 6.15625 39.59375 2.984375 39.59375 
L 2.984375 43.109375 
L 17.484375 44.1875 
L 17.484375 34.421875 
Q 19.484375 38.71875 23.40625 41.453125 
Q 27.34375 44.1875 31.984375 44.1875 
Q 43.5 44.1875 45.515625 34.8125 
Q 47.515625 39.015625 51.359375 41.59375 
Q 55.21875 44.1875 59.8125 44.1875 
Q 64.359375 44.1875 67.453125 42.71875 
Q 70.5625 41.265625 72.125 38.25 
Q 73.6875 35.25 73.6875 30.71875 
L 73.6875 6.6875 
Q 73.6875 4.59375 75.90625 4.046875 
Q 78.125 3.515625 81.5 3.515625 
L 81.5 0 
L 58.59375 0 
L 58.59375 3.515625 
Q 62.015625 3.515625 64.203125 4.046875 
Q 66.40625 4.59375 66.40625 6.6875 
L 66.40625 30.421875 
Q 66.40625 35.453125 64.984375 38.53125 
Q 63.578125 41.609375 59.1875 41.609375 
Q 53.421875 41.609375 49.65625 36.96875 
Q 45.90625 32.328125 45.90625 26.421875 
L 45.90625 6.6875 
Q 45.90625 4.59375 48.09375 4.046875 
Q 50.296875 3.515625 53.71875 3.515625 
L 53.71875 0 
L 30.8125 0 
L 30.8125 3.515625 
Q 34.234375 3.515625 36.421875 4.046875 
Q 38.625 4.59375 38.625 6.6875 
L 38.625 30.421875 
Q 38.625 35.296875 37.203125 38.453125 
Q 35.796875 41.609375 31.390625 41.609375 
Q 25.59375 41.609375 21.84375 36.96875 
Q 18.109375 32.328125 18.109375 26.421875 
L 18.109375 6.6875 
Q 18.109375 4.59375 20.3125 4.046875 
Q 22.515625 3.515625 25.875 3.515625 
L 25.875 0 
z
" id="Cmr10-109"/>
      <path d="M 24.90625 -1.125 
Q 18.796875 -1.125 13.6875 2.078125 
Q 8.59375 5.28125 5.6875 10.625 
Q 2.78125 15.96875 2.78125 21.921875 
Q 2.78125 27.78125 5.4375 33.046875 
Q 8.109375 38.328125 12.859375 41.578125 
Q 17.625 44.828125 23.484375 44.828125 
Q 28.078125 44.828125 31.46875 43.28125 
Q 34.859375 41.75 37.0625 39.015625 
Q 39.265625 36.28125 40.375 32.5625 
Q 41.5 28.859375 41.5 24.421875 
Q 41.5 23.09375 40.484375 23.09375 
L 11.53125 23.09375 
L 11.53125 22.015625 
Q 11.53125 13.71875 14.875 7.765625 
Q 18.21875 1.8125 25.78125 1.8125 
Q 28.859375 1.8125 31.46875 3.171875 
Q 34.078125 4.546875 36 6.984375 
Q 37.9375 9.421875 38.625 12.203125 
Q 38.71875 12.546875 38.984375 12.8125 
Q 39.265625 13.09375 39.59375 13.09375 
L 40.484375 13.09375 
Q 41.5 13.09375 41.5 11.8125 
Q 40.09375 6.15625 35.40625 2.515625 
Q 30.71875 -1.125 24.90625 -1.125 
z
M 11.625 25.59375 
L 34.421875 25.59375 
Q 34.421875 29.34375 33.375 33.203125 
Q 32.328125 37.0625 29.875 39.625 
Q 27.4375 42.1875 23.484375 42.1875 
Q 17.828125 42.1875 14.71875 36.890625 
Q 11.625 31.59375 11.625 25.59375 
z
" id="Cmr10-101"/>
      <path id="Cmr10-32"/>
      <path d="M 31 -24.8125 
Q 25.4375 -20.40625 21.40625 -14.71875 
Q 17.390625 -9.03125 14.8125 -2.578125 
Q 12.25 3.859375 10.984375 10.890625 
Q 9.71875 17.921875 9.71875 25 
Q 9.71875 32.171875 10.984375 39.203125 
Q 12.25 46.234375 14.859375 52.734375 
Q 17.484375 59.234375 21.53125 64.890625 
Q 25.59375 70.5625 31 74.8125 
Q 31 75 31.5 75 
L 32.421875 75 
Q 32.71875 75 32.953125 74.734375 
Q 33.203125 74.46875 33.203125 74.125 
Q 33.203125 73.6875 33.015625 73.484375 
Q 28.125 68.703125 24.875 63.234375 
Q 21.625 57.765625 19.640625 51.578125 
Q 17.671875 45.40625 16.796875 38.78125 
Q 15.921875 32.171875 15.921875 25 
Q 15.921875 -6.78125 32.90625 -23.296875 
Q 33.203125 -23.578125 33.203125 -24.125 
Q 33.203125 -24.359375 32.9375 -24.671875 
Q 32.671875 -25 32.421875 -25 
L 31.5 -25 
Q 31 -25 31 -24.8125 
z
" id="Cmr10-40"/>
      <path d="M 3.328125 -0.296875 
L 3.328125 16.015625 
Q 3.328125 16.796875 4.203125 16.796875 
L 5.421875 16.796875 
Q 6 16.796875 6.203125 16.015625 
Q 8.984375 1.515625 19.671875 1.515625 
Q 24.421875 1.515625 27.609375 3.65625 
Q 30.8125 5.8125 30.8125 10.296875 
Q 30.8125 13.53125 28.3125 15.796875 
Q 25.828125 18.0625 22.40625 18.890625 
L 15.71875 20.21875 
Q 12.359375 20.953125 9.59375 22.453125 
Q 6.84375 23.96875 5.078125 26.484375 
Q 3.328125 29 3.328125 32.328125 
Q 3.328125 36.71875 5.640625 39.515625 
Q 7.953125 42.328125 11.65625 43.578125 
Q 15.375 44.828125 19.671875 44.828125 
Q 24.8125 44.828125 28.609375 42.09375 
L 31.5 44.578125 
Q 31.5 44.828125 31.984375 44.828125 
L 32.71875 44.828125 
Q 33.015625 44.828125 33.25 44.546875 
Q 33.5 44.28125 33.5 44 
L 33.5 30.90625 
Q 33.5 29.984375 32.71875 29.984375 
L 31.5 29.984375 
Q 30.609375 29.984375 30.609375 30.90625 
Q 30.609375 36.140625 27.703125 39.3125 
Q 24.8125 42.484375 19.578125 42.484375 
Q 15.09375 42.484375 11.796875 40.8125 
Q 8.5 39.15625 8.5 35.109375 
Q 8.5 32.328125 10.859375 30.546875 
Q 13.234375 28.765625 16.40625 27.984375 
L 23.1875 26.703125 
Q 26.609375 25.921875 29.5625 24.0625 
Q 32.515625 22.21875 34.25 19.375 
Q 35.984375 16.546875 35.984375 12.984375 
Q 35.984375 9.375 34.734375 6.703125 
Q 33.5 4.046875 31.265625 2.28125 
Q 29.046875 0.53125 26.015625 -0.296875 
Q 23 -1.125 19.671875 -1.125 
Q 13.421875 -1.125 8.984375 3.078125 
L 5.328125 -0.875 
Q 5.328125 -1.125 4.78125 -1.125 
L 4.203125 -1.125 
Q 3.328125 -1.125 3.328125 -0.296875 
z
" id="Cmr10-115"/>
      <path d="M 6.5 -25 
Q 5.609375 -25 5.609375 -24.125 
Q 5.609375 -23.6875 5.8125 -23.484375 
Q 22.90625 -6.78125 22.90625 25 
Q 22.90625 56.78125 6 73.296875 
Q 5.609375 73.53125 5.609375 74.125 
Q 5.609375 74.46875 5.875 74.734375 
Q 6.15625 75 6.5 75 
L 7.421875 75 
Q 7.71875 75 7.90625 74.8125 
Q 15.09375 69.140625 19.875 61.03125 
Q 24.65625 52.9375 26.875 43.75 
Q 29.109375 34.578125 29.109375 25 
Q 29.109375 17.921875 27.90625 11.0625 
Q 26.703125 4.203125 24.09375 -2.453125 
Q 21.484375 -9.125 17.484375 -14.765625 
Q 13.484375 -20.40625 7.90625 -24.8125 
Q 7.71875 -25 7.421875 -25 
z
" id="Cmr10-41"/>
     </defs>
     <g transform="translate(194.438688 409.68)scale(0.144 -0.144)">
      <use xlink:href="#Cmr10-84"/>
      <use x="72.216797" xlink:href="#Cmr10-105"/>
      <use x="99.902344" xlink:href="#Cmr10-109"/>
      <use x="183.203125" xlink:href="#Cmr10-101"/>
      <use x="227.587891" xlink:href="#Cmr10-32"/>
      <use x="260.888672" xlink:href="#Cmr10-40"/>
      <use x="299.707031" xlink:href="#Cmr10-115"/>
      <use x="339.111328" xlink:href="#Cmr10-41"/>
     </g>
    </g>
   </g>
   <g id="matplotlib.axis_6">
    <g id="ytick_8">
     <g id="line2d_59">
      <path clip-path="url(#p0cb129ce04)" d="M 36.018125 345.01448 
L 407.28 345.01448 
" style="fill:none;stroke:#cbcbcb;"/>
     </g>
     <g id="line2d_60"/>
     <g id="text_16">
      <!-- 0.0 -->
      <g transform="translate(17.195625 349.177917)scale(0.12 -0.12)">
       <use xlink:href="#Cmr10-48"/>
       <use x="50" xlink:href="#Cmr10-46"/>
       <use x="77.685547" xlink:href="#Cmr10-48"/>
      </g>
     </g>
    </g>
    <g id="ytick_9">
     <g id="line2d_61">
      <path clip-path="url(#p0cb129ce04)" d="M 36.018125 304.440069 
L 407.28 304.440069 
" style="fill:none;stroke:#cbcbcb;"/>
     </g>
     <g id="line2d_62"/>
     <g id="text_17">
      <!-- 0.2 -->
      <g transform="translate(17.195625 308.603507)scale(0.12 -0.12)">
       <use xlink:href="#Cmr10-48"/>
       <use x="50" xlink:href="#Cmr10-46"/>
       <use x="77.685547" xlink:href="#Cmr10-50"/>
      </g>
     </g>
    </g>
   </g>
   <g id="line2d_63">
    <path clip-path="url(#p0cb129ce04)" d="M 35.989566 344.992963 
L 65.033668 344.884846 
L 65.319255 344.487682 
L 65.776192 343.417897 
L 66.375923 341.410255 
L 67.118447 338.092079 
L 68.003763 333.058418 
L 69.117549 325.339339 
L 70.659714 312.916063 
L 73.943953 286.291135 
L 75.057739 279.310308 
L 75.914497 275.165632 
L 76.657021 272.548582 
L 77.28531 271.073703 
L 77.770807 270.400167 
L 78.199186 270.14252 
L 78.570448 270.166864 
L 78.970268 270.444799 
L 79.398647 271.020956 
L 79.912702 272.071833 
L 80.56955 273.9484 
L 81.39775 277.080744 
L 82.397301 281.819835 
L 83.653879 288.914271 
L 85.710099 302.009662 
L 88.251815 317.716016 
L 89.479835 323.921872 
L 90.422269 327.695293 
L 91.250469 330.166274 
L 91.935875 331.557774 
L 92.478489 332.220151 
L 92.935426 332.470901 
L 93.335247 332.459134 
L 93.763626 332.208587 
L 94.249122 331.631416 
L 94.820294 330.565121 
L 95.505701 328.759762 
L 96.305342 325.986907 
L 97.276334 321.783601 
L 98.561472 315.145627 
L 103.330759 289.342331 
L 104.33031 285.619629 
L 105.15851 283.339347 
L 105.843916 282.047052 
L 106.415088 281.393804 
L 106.900585 281.142243 
L 107.328964 281.150357 
L 107.785901 281.387718 
L 108.357073 282.008506 
L 108.985363 283.083728 
L 109.670769 284.684389 
L 110.613203 287.530683 
L 111.669872 291.440028 
L 113.383388 298.838772 
L 116.696186 313.39687 
L 117.895648 317.636896 
L 118.895199 320.404071 
L 119.723399 322.073708 
L 120.408805 322.99069 
L 121.008536 323.432951 
L 121.522591 323.540473 
L 122.036646 323.396434 
L 122.607818 322.948086 
L 123.207548 322.160943 
L 123.978631 320.698235 
L 124.80683 318.618797 
L 125.777823 315.614262 
L 127.291429 310.061654 
L 131.346751 294.935513 
L 132.346302 292.227172 
L 133.231619 290.417553 
L 133.974143 289.368704 
L 134.573874 288.849352 
L 135.116487 288.632279 
L 135.659101 288.656623 
L 136.201714 288.914271 
L 136.830003 289.494485 
L 137.486851 290.401323 
L 138.229375 291.762595 
L 139.200368 294.006359 
L 140.485505 297.591109 
L 142.655959 304.413696 
L 144.569386 310.159032 
L 145.768847 313.161539 
L 146.825515 315.224747 
L 147.596598 316.324314 
L 148.282004 316.987706 
L 148.853176 317.304186 
L 149.452907 317.403593 
L 150.081196 317.249411 
L 150.652369 316.888298 
L 151.252099 316.289826 
L 152.080299 315.121283 
L 152.994174 313.421215 
L 154.136518 310.816338 
L 156.021386 305.837858 
L 158.591661 299.216114 
L 159.762564 296.818166 
L 160.762115 295.264166 
L 161.618873 294.347184 
L 162.418514 293.86232 
L 163.103921 293.73654 
L 163.703651 293.844062 
L 164.389058 294.205174 
L 165.131582 294.868566 
L 165.959781 295.907271 
L 166.930774 297.471414 
L 168.24447 300.027602 
L 172.870964 309.629536 
L 174.127543 311.471614 
L 175.069976 312.4454 
L 175.8125 312.938379 
L 176.526465 313.173711 
L 177.240431 313.169654 
L 177.86872 312.972868 
L 178.525568 312.581325 
L 179.468002 311.708975 
L 180.553229 310.311186 
L 182.009718 307.943669 
L 186.721888 299.798357 
L 187.778556 298.554751 
L 188.692431 297.793981 
L 189.577748 297.359834 
L 190.234596 297.236083 
L 191.119913 297.339547 
L 191.890995 297.6682 
L 192.747753 298.274787 
L 193.747305 299.264803 
L 195.061001 300.924296 
L 198.231006 305.620784 
L 199.630377 307.509523 
L 200.944073 308.929628 
L 201.943625 309.704599 
L 202.828941 310.140774 
L 203.657141 310.32133 
L 204.513899 310.272641 
L 205.427774 309.968333 
L 206.455884 309.3374 
L 207.998049 308.270293 
L 208.283635 308.596917 
L 208.712014 309.495641 
L 209.283186 311.28903 
L 209.997151 314.344283 
L 210.85391 319.02657 
L 211.967695 326.406243 
L 213.70977 339.663932 
L 216.194369 358.326132 
L 217.39383 365.660768 
L 218.336264 370.156413 
L 219.135905 372.943875 
L 219.764195 374.422812 
L 220.278249 375.153152 
L 220.706629 375.433115 
L 221.106449 375.420943 
L 221.477711 375.181554 
L 221.90609 374.637857 
L 222.448703 373.548434 
L 223.13411 371.568403 
L 223.905192 368.610528 
L 224.876185 363.933922 
L 226.132764 356.681651 
L 228.67448 340.280257 
L 230.273761 330.834535 
L 231.358988 325.659674 
L 232.215747 322.5464 
L 232.901153 320.761126 
L 233.472325 319.783282 
L 233.957822 319.324792 
L 234.386201 319.207126 
L 234.786021 319.334935 
L 235.2144 319.72445 
L 235.785572 320.633316 
L 236.413862 322.11834 
L 237.184944 324.569034 
L 238.070261 328.114426 
L 239.298281 334.011511 
L 241.697204 346.946633 
L 243.41072 355.508442 
L 244.553064 360.151778 
L 245.46694 363.012274 
L 246.238022 364.747844 
L 246.866311 365.672941 
L 247.437484 366.121288 
L 247.865863 366.21258 
L 248.265683 366.111144 
L 248.751179 365.745975 
L 249.322351 364.990885 
L 249.979199 363.711168 
L 250.750282 361.694011 
L 251.721274 358.471186 
L 252.977853 353.438945 
L 255.49101 342.149723 
L 257.118851 335.436484 
L 258.232636 331.724737 
L 259.117953 329.479958 
L 259.860477 328.150132 
L 260.488766 327.444948 
L 261.03138 327.153827 
L 261.516876 327.143075 
L 262.002372 327.365017 
L 262.544986 327.879906 
L 263.173275 328.810683 
L 263.915799 330.336484 
L 264.829674 332.765065 
L 266.000577 336.568105 
L 267.914004 343.684897 
L 270.084458 351.520789 
L 271.312478 355.141853 
L 272.283471 357.352955 
L 273.083111 358.666146 
L 273.768518 359.398311 
L 274.368249 359.731224 
L 274.910862 359.783565 
L 275.453476 359.6024 
L 276.024648 359.166428 
L 276.681496 358.368735 
L 277.452578 357.059196 
L 278.395012 354.979555 
L 279.565915 351.819214 
L 281.479342 345.894255 
L 283.678354 339.269143 
L 284.877816 336.324861 
L 285.848808 334.493535 
L 286.648449 333.422776 
L 287.333856 332.844997 
L 287.933586 332.604999 
L 288.504759 332.607839 
L 289.075931 332.832419 
L 289.70422 333.326209 
L 290.418185 334.181518 
L 291.274943 335.578292 
L 292.331612 337.76221 
L 293.759542 341.27007 
L 297.415044 350.471738 
L 298.557388 352.653221 
L 299.499822 354.006378 
L 300.299463 354.793724 
L 301.013428 355.199671 
L 301.670276 355.32038 
L 302.327124 355.20028 
L 302.983972 354.846674 
L 303.726495 354.181051 
L 304.583254 353.094062 
L 305.611363 351.406978 
L 306.953618 348.743674 
L 311.380202 339.594753 
L 312.465429 338.028175 
L 313.379304 337.085428 
L 314.178945 336.573582 
L 314.89291 336.373956 
L 315.578317 336.411893 
L 316.292282 336.684959 
L 317.063364 337.232713 
L 317.948681 338.155376 
L 319.00535 339.602665 
L 320.404721 341.935693 
L 324.688512 349.348841 
L 325.802298 350.715793 
L 326.744732 351.547771 
L 327.60149 352.016609 
L 328.372572 352.193919 
L 329.143655 352.138535 
L 329.914737 351.856745 
L 330.771495 351.294993 
L 331.742488 350.376185 
L 332.913391 348.944314 
L 334.598348 346.485444 
L 337.654119 341.998178 
L 338.910698 340.567524 
L 339.938808 339.708158 
L 340.852683 339.217411 
L 341.709441 339.006221 
L 342.537641 339.034014 
L 343.36584 339.283547 
L 344.308274 339.818926 
L 345.364943 340.69716 
L 346.678639 342.10712 
L 348.849093 344.83736 
L 351.048105 347.481404 
L 352.361801 348.725212 
L 353.447028 349.466101 
L 354.418021 349.873874 
L 355.331896 350.023796 
L 356.245771 349.945894 
L 357.188205 349.636311 
L 358.244874 349.037635 
L 359.444335 348.089614 
L 361.100734 346.45905 
L 364.899029 342.612272 
L 366.184166 341.673583 
L 367.326511 341.112439 
L 368.326062 340.859254 
L 369.297054 340.834301 
L 370.325164 341.040419 
L 371.381833 341.481869 
L 372.638411 342.263332 
L 374.237693 343.543962 
L 378.635718 347.217467 
L 379.977973 347.965051 
L 381.120317 348.359231 
L 382.234103 348.507531 
L 383.290771 348.430034 
L 384.433115 348.119436 
L 385.689694 347.539831 
L 387.288976 346.530806 
L 392.772228 342.825287 
L 394.057366 342.340829 
L 395.285386 342.114018 
L 396.456288 342.122944 
L 397.684308 342.360507 
L 399.026563 342.85511 
L 400.654403 343.702973 
L 406.337566 346.885853 
L 407.308559 347.194948 
L 407.308559 347.194948 
" style="fill:none;stroke:#fc4f30;stroke-width:4;"/>
   </g>
   <g id="patch_13">
    <path d="M 36.018125 380.72625 
L 36.018125 264.8575 
" style="fill:none;stroke:#ffffff;stroke-linecap:square;stroke-linejoin:miter;stroke-width:3;"/>
   </g>
   <g id="patch_14">
    <path d="M 407.28 380.72625 
L 407.28 264.8575 
" style="fill:none;stroke:#ffffff;stroke-linecap:square;stroke-linejoin:miter;stroke-width:3;"/>
   </g>
   <g id="patch_15">
    <path d="M 36.018125 380.72625 
L 407.28 380.72625 
" style="fill:none;stroke:#ffffff;stroke-linecap:square;stroke-linejoin:miter;stroke-width:3;"/>
   </g>
   <g id="patch_16">
    <path d="M 36.018125 264.8575 
L 407.28 264.8575 
" style="fill:none;stroke:#ffffff;stroke-linecap:square;stroke-linejoin:miter;stroke-width:3;"/>
   </g>
  </g>
 </g>
 <defs>
  <clipPath id="pc70eb3c600">
   <rect height="115.86875" width="371.261875" x="36.018125" y="7.2"/>
  </clipPath>
  <clipPath id="p9080d903bb">
   <rect height="115.86875" width="371.261875" x="36.018125" y="136.02875"/>
  </clipPath>
  <clipPath id="p0cb129ce04">
   <rect height="115.86875" width="371.261875" x="36.018125" y="264.8575"/>
  </clipPath>
 </defs>
</svg>
